<svg width="30" height="30" viewBox="0 0 30 30" fill="none" xmlns="http://www.w3.org/2000/svg">
<path d="M25.5 24.375L6.75 5.625M12.75 13.052C12.2832 13.5666 12 14.2425 12 14.9829C12 16.5951 13.3431 17.9021 15 17.9021C15.7639 17.9021 16.4612 17.6242 16.9908 17.1667M25.5485 17.9021C26.5813 16.356 27 15.0952 27 15.0952C27 15.0952 24.2692 6.375 15 6.375C14.4796 6.375 13.9798 6.40248 13.5 6.45437M21.75 21.6868C20.0282 22.7852 17.8117 23.5619 15 23.5159C5.84615 23.3662 3 15.0952 3 15.0952C3 15.0952 4.32232 10.8726 8.25 8.30415" stroke="#FF7433" stroke-width="2" stroke-linecap="round"/>
</svg>
