<svg width="20" height="20" viewBox="0 0 20 20" fill="none" xmlns="http://www.w3.org/2000/svg">
<path d="M2 15.1797C2.91554 13.6526 4.92209 12.6075 8.0526 12.6075C11.1831 12.6075 13.1897 13.6526 14.1052 15.1797M14.6844 11.4495C16.3422 12.2784 17.1711 13.1073 18 14.7651M12.9602 5.11369C13.7402 5.53332 14.2705 6.35729 14.2705 7.30511C14.2705 8.22555 13.7704 9.02919 13.0272 9.45915M10.5393 7.30508C10.5393 8.67846 9.42598 9.79181 8.0526 9.79181C6.67922 9.79181 5.56587 8.67846 5.56587 7.30508C5.56587 5.9317 6.67922 4.81836 8.0526 4.81836C9.42598 4.81836 10.5393 5.9317 10.5393 7.30508Z" stroke="#999999" stroke-width="2" stroke-linecap="round"/>
</svg>
