<svg width="28" height="28" viewBox="0 0 28 28" fill="none" xmlns="http://www.w3.org/2000/svg">
<path fill-rule="evenodd" clip-rule="evenodd" d="M4.44038 7.24086C5.49054 6.19103 6.91466 5.60126 8.39958 5.60126C9.8845 5.60126 11.3086 6.19103 12.3588 7.24086L13.9996 8.88026L15.6404 7.24086C16.157 6.70601 16.7749 6.27939 17.4581 5.9859C18.1413 5.69241 18.8762 5.53792 19.6197 5.53146C20.3633 5.525 21.1007 5.66669 21.7889 5.94826C22.4771 6.22984 23.1024 6.64565 23.6282 7.17145C24.154 7.69725 24.5698 8.3225 24.8514 9.01072C25.133 9.69894 25.2746 10.4363 25.2682 11.1799C25.2617 11.9235 25.1072 12.6583 24.8137 13.3415C24.5203 14.0248 24.0936 14.6427 23.5588 15.1593L13.9996 24.7199L4.44038 15.1593C3.39055 14.1091 2.80078 12.685 2.80078 11.2001C2.80078 9.71514 3.39055 8.29102 4.44038 7.24086V7.24086Z" stroke="white" stroke-width="2" stroke-linejoin="round"/>
</svg>
