<svg width="17" height="17" viewBox="0 0 17 17" fill="none" xmlns="http://www.w3.org/2000/svg">
<path fill-rule="evenodd" clip-rule="evenodd" d="M2.69469 4.3954C3.33229 3.758 4.19693 3.39993 5.09849 3.39993C6.00005 3.39993 6.8647 3.758 7.50229 4.3954L8.49849 5.39075L9.49469 4.3954C9.80833 4.07067 10.1835 3.81165 10.5983 3.63346C11.0131 3.45527 11.4593 3.36147 11.9107 3.35755C12.3622 3.35363 12.8099 3.43965 13.2277 3.61061C13.6456 3.78156 14.0252 4.03402 14.3444 4.35326C14.6637 4.67249 14.9161 5.05211 15.0871 5.46996C15.258 5.88781 15.3441 6.33552 15.3401 6.78697C15.3362 7.23842 15.2424 7.68456 15.0642 8.09938C14.886 8.51419 14.627 8.88936 14.3023 9.203L8.49849 15.0077L2.69469 9.203C2.05729 8.56541 1.69922 7.70076 1.69922 6.7992C1.69922 5.89764 2.05729 5.033 2.69469 4.3954Z" fill="#FD6F22" stroke="#FD6F22" stroke-width="2" stroke-linejoin="round"/>
</svg>
