<svg width="3865" height="661" version="1.1" xmlns="http://www.w3.org/2000/svg" desc="Created with imagetracer.js version 1.2.6" ><path fill="rgb(248,185,152)" stroke="rgb(248,185,152)" stroke-width="1" opacity="0.4627450980392157" d="M 2807.5 69 Q 2823.3 66.2 2827 75.5 L 2836 98.5 L 2839 112.5 L 2841 135.5 L 2842 136.5 L 2842 142.5 L 2845 157.5 L 2845 166.5 L 2846 167.5 L 2846 199.5 Q 2848.3 200.8 2847 205.5 L 2848 208.5 Q 2866.6 224.4 2881 244.5 Q 2893.2 262.8 2902 284.5 L 2909 307.5 L 2911 324.5 L 2912 325.5 L 2912 334.5 L 2913 335.5 L 2913 372.5 L 2906 403.5 L 2896 431.5 L 2888 447.5 Q 2872.2 475.2 2849.5 496 L 2830.5 510 L 2793.5 530 L 2763.5 543 L 2731.5 554 L 2703.5 560 L 2681.5 562 L 2680.5 563 L 2671.5 563 L 2670.5 564 L 2656.5 564 L 2655.5 565 L 2604.5 565 L 2603.5 564 L 2584.5 563 L 2552.5 557 L 2535.5 552 L 2520.5 545 L 2469.5 514 L 2452.5 499 L 2438.5 490 L 2422 473.5 L 2414 464.5 L 2402 446.5 L 2390 420.5 L 2384 394.5 L 2384 363.5 L 2388 340.5 L 2396 315.5 L 2430 247.5 L 2434 226.5 L 2438 189.5 L 2445 153.5 L 2455 120.5 Q 2458.3 112.8 2464.5 108 Q 2469.6 104.6 2479.5 106 Q 2502 110.5 2518.5 121 L 2532.5 131 L 2587.5 178 L 2589.5 179 L 2600.5 179 L 2601.5 178 L 2614.5 178 L 2615.5 177 L 2626.5 177 L 2627.5 176 L 2676.5 175 L 2677.5 176 L 2693.5 176 L 2698.5 177 L 2703 172.5 L 2732 129.5 L 2756.5 104 Q 2779 83.5 2807.5 69 Z M 2811 70 L 2803 73 L 2787 83 L 2751 112 L 2733 132 L 2701 178 L 2688 178 L 2687 177 L 2635 177 L 2634 178 L 2622 178 L 2621 179 L 2609 179 L 2608 180 L 2588 180 L 2526 128 Q 2508 114 2482 108 L 2469 108 L 2464 111 L 2455 126 L 2446 158 L 2440 189 L 2437 218 L 2435 226 L 2435 233 L 2431 251 L 2426 263 Q 2410 287 2398 316 L 2389 345 L 2386 362 L 2386 373 L 2385 374 L 2385 386 L 2386 387 L 2387 402 L 2394 426 Q 2402 446 2415 463 L 2432 482 L 2456 499 L 2468 510 L 2484 521 L 2534 549 L 2569 558 L 2586 560 L 2587 561 L 2594 561 L 2595 562 L 2607 562 L 2608 563 L 2652 563 L 2653 562 L 2669 562 L 2670 561 L 2679 561 L 2680 560 L 2688 560 L 2689 559 L 2709 557 L 2735 551 Q 2799 531 2848 495 Q 2875 470 2892 436 L 2906 397 L 2911 373 L 2911 360 L 2912 359 L 2911 335 L 2910 334 L 2908 313 L 2905 300 L 2897 278 L 2880 247 Q 2866 226 2847 211 L 2845 207 Q 2847 200 2844 199 L 2844 167 L 2843 166 L 2843 158 L 2840 143 L 2840 137 L 2839 136 L 2837 113 L 2833 96 L 2823 73 L 2818 70 L 2811 70 Z " /><path fill="rgb(248,185,152)" stroke="rgb(248,185,152)" stroke-width="1" opacity="0.4627450980392157" d="M 63 99 L 281.5 99 L 282 100.5 L 317 209.5 L 319 216.5 L 319 222.5 L 292 302.5 L 304.5 307 L 376 99 L 580 99 L 580 557 L 420 557 L 420 412.5 L 419 412.5 L 380 543.5 L 376 553.5 L 376 557 L 269.5 557 L 268 555.5 L 224.5 412 L 224 557 L 63.5 557 L 63 555 L 222 555 L 222 403.5 L 223 403.5 L 269 555 L 373.5 555 L 375 553.5 L 420.5 403 L 421 555 L 578 555 L 578 101 L 376.5 101 L 376 103.5 L 306 308 L 294.5 306 L 290 303.5 L 290 300.5 L 318 219.5 L 281 101 L 63.5 101 L 63 99 Z " /><path fill="rgb(248,185,152)" stroke="rgb(248,185,152)" stroke-width="1" opacity="0.4627450980392157" d="M 733 99 L 932.5 99 L 934 100.5 L 1062 516.5 L 1065 529.5 L 1073 552.5 L 1073 557 L 861.5 557 L 861 554.5 L 833.5 466 L 832 467.5 L 805 557 L 593.5 557 L 593 554.5 L 733 99 Z M 733 101 L 733 105 L 594 555 L 804 555 L 833 462 L 841 486 L 861 554 L 863 555 L 1071 555 L 1014 370 L 1011 357 L 955 178 L 952 165 L 932 103 L 932 101 L 733 101 Z " /><path fill="rgb(248,185,152)" stroke="rgb(248,185,152)" stroke-width="1" opacity="0.4627450980392157" d="M 1087 99 L 1283.5 99 L 1284.5 100 L 1318.5 101 L 1319.5 102 L 1328.5 102 L 1329.5 103 L 1350.5 105 L 1378.5 111 L 1410.5 122 Q 1443.8 136.2 1466 161.5 Q 1484.9 183.6 1494 215.5 L 1500 247.5 L 1500 257.5 L 1501 258.5 L 1501 291.5 L 1500 292.5 L 1500 301.5 L 1497 318.5 L 1489 343.5 L 1476 367.5 L 1453 394.5 L 1453 396.5 L 1512 547.5 L 1514 557 L 1312.5 557 L 1311 555.5 L 1275.5 451 L 1275 556.5 L 1273.5 558 L 1087.5 558 L 1087 556 L 1274 556 L 1274 446.5 L 1275 446.5 L 1312 555 L 1511.5 555 L 1512 552.5 L 1452 399.5 L 1451 393.5 Q 1478.6 369.1 1492 330.5 L 1499 295.5 L 1499 254.5 L 1498 253.5 L 1498 244.5 L 1494 222.5 L 1486 197.5 Q 1475.2 171.8 1456.5 154 Q 1438.1 136.4 1413.5 125 L 1383.5 114 L 1347.5 106 L 1325.5 104 L 1324.5 103 L 1315.5 103 L 1314.5 102 L 1300.5 102 L 1299.5 101 L 1087 101 L 1087 99 Z " /><path fill="rgb(248,185,152)" stroke="rgb(248,185,152)" stroke-width="1" opacity="0.4627450980392157" d="M 1528 99 L 1729 99 L 1729 169.5 L 1691 277 L 1703.5 280 L 1707 273.5 L 1766 99 L 1971.5 99 Q 1972.5 99 1972 103.5 L 1886 328.5 L 1972 552.5 L 1972 557 L 1766.5 557 L 1766 554.5 L 1729.5 449 L 1729 557 L 1528 557 L 1528 99 Z M 1529 101 L 1529 555 L 1727 555 L 1728 441 L 1766 554 L 1768 555 L 1970 555 L 1969 550 L 1884 329 L 1970 104 L 1970 101 L 1768 101 L 1757 129 L 1705 282 L 1689 278 L 1693 264 L 1727 170 L 1727 101 L 1529 101 Z " /><path fill="rgb(248,185,152)" stroke="rgb(248,185,152)" stroke-width="1" opacity="0.4627450980392157" d="M 1979 99 L 2397.5 99 L 2399 100.5 L 2399 248.5 L 2397.5 250 L 2289 250 L 2289 556.5 L 2287.5 558 L 2089.5 558 L 2088 556.5 L 2088 250 L 1979 250 L 1979 99 Z M 1980 101 L 1980 248 L 1982 249 L 2089 249 L 2089 556 L 2287 556 L 2287 249 L 2397 249 L 2397 101 L 1980 101 Z " /><path fill="rgb(248,185,152)" stroke="rgb(248,185,152)" stroke-width="1" opacity="0.4627450980392157" d="M 2931 99 L 3127.5 99 L 3128.5 100 L 3162.5 101 L 3163.5 102 L 3172.5 102 L 3173.5 103 L 3181.5 103 L 3182.5 104 L 3200.5 106 L 3236.5 115 L 3269.5 129 Q 3294.6 142.4 3312 163.5 Q 3327.4 182.1 3336 207.5 L 3344 243.5 L 3345 274.5 L 3346 276.5 L 3345 277.5 L 3345 296.5 L 3344 297.5 L 3343 310.5 L 3335 339.5 L 3321 366.5 L 3297 395.5 L 3359 557 L 3156.5 557 L 3156 555.5 L 3120.5 453 L 3120 556.5 L 3118.5 558 L 2931 558 L 2931 99 Z M 2932 101 L 2932 556 L 3118 556 L 3119 445 L 3144 517 L 3153 546 L 3158 555 L 3357 555 L 3295 396 L 3295 394 L 3316 371 L 3331 345 L 3340 317 L 3342 307 L 3342 300 L 3343 299 L 3343 289 L 3344 288 L 3343 251 L 3336 214 Q 3327 183 3308 162 Q 3287 138 3256 124 L 3221 112 L 3186 105 L 3171 104 L 3170 103 L 3160 103 L 3159 102 L 3145 102 L 3144 101 L 2932 101 Z " /><path fill="rgb(248,185,152)" stroke="rgb(248,185,152)" stroke-width="1" opacity="0.4627450980392157" d="M 3352 99 L 3557.5 99 L 3558 100.5 L 3592 182.5 L 3592 187.5 L 3562 264 L 3571.5 267 L 3576 267 L 3640 99 L 3831.5 99 L 3832 101.5 L 3699 401.5 L 3699 555.5 L 3697.5 557 L 3498.5 557 L 3498 555 L 3697 555 L 3697 402.5 L 3830 101.5 L 3640 101 L 3576 269 L 3561.5 266 L 3560 264.5 L 3590 187.5 L 3590 182.5 L 3557 101 L 3353 101.5 L 3489 383.5 L 3498 404.5 L 3497 404.5 L 3352 102.5 L 3352 99 Z " /><path fill="rgb(248,185,152)" stroke="rgb(248,185,152)" stroke-width="1" opacity="0.4627450980392157" d="M 1235 251 L 1254.5 260 L 1279.5 268 L 1300.5 273 L 1329.5 278 L 1345.5 279 L 1346.5 280 L 1376 281 L 1376 298 L 1353.5 298 L 1352.5 297 L 1340.5 297 L 1339.5 296 L 1316.5 294 L 1279.5 287 L 1246.5 277 L 1226 266.5 L 1226 264.5 L 1235 251 Z M 1236 253 L 1228 266 L 1249 276 L 1278 285 L 1313 292 L 1335 294 L 1336 295 L 1345 295 L 1346 296 L 1358 296 L 1359 297 L 1375 297 L 1375 283 L 1341 281 L 1340 280 L 1319 278 L 1313 276 L 1298 274 L 1264 265 L 1236 253 Z " /><path fill="rgb(248,185,152)" stroke="rgb(248,185,152)" stroke-width="1" opacity="0.4627450980392157" d="M 3080.5 251 L 3101.5 261 L 3135.5 271 L 3173.5 278 L 3189.5 279 L 3190.5 280 L 3201.5 280 L 3202.5 281 L 3219.5 281 L 3221 282.5 L 3221 298 L 3197.5 298 L 3196.5 297 L 3185.5 297 L 3184.5 296 L 3160.5 294 L 3128.5 288 L 3093.5 278 L 3070 267 L 3071 263.5 L 3080.5 251 Z M 3082 253 L 3072 266 L 3096 277 L 3131 287 L 3164 293 L 3189 295 L 3190 296 L 3202 296 L 3203 297 L 3220 297 L 3220 283 L 3186 281 L 3185 280 L 3170 279 L 3138 273 L 3100 262 L 3082 253 Z " /><path fill="rgb(248,185,152)" stroke="rgb(248,185,152)" stroke-width="1" opacity="0.4627450980392157" d="M 766.5 313 L 797.5 324 L 835.5 332 L 858.5 334 L 859.5 335 L 869.5 335 L 870.5 336 L 915 337 L 914.5 339 L 900.5 339 L 899.5 338 L 863.5 337 L 862.5 336 L 853.5 336 L 852.5 335 L 845.5 335 L 844.5 334 L 820.5 331 L 788.5 323 L 767.5 315 L 758 328.5 L 784.5 339 L 807.5 345 L 829.5 349 L 852.5 351 L 853.5 352 L 864.5 352 L 865.5 353 L 915 354 Q 916.1 357.5 908.5 356 L 907.5 355 L 860.5 354 L 859.5 353 L 849.5 353 L 848.5 352 L 840.5 352 L 839.5 351 L 820.5 349 L 792.5 343 L 756 330 L 756 327.5 L 766.5 313 Z " /><path fill="rgb(252,110,33)" stroke="rgb(252,110,33)" stroke-width="1" opacity="0.996078431372549" d="M 2810.5 70 Q 2821.6 68.4 2824 75.5 L 2830 87.5 L 2837 112.5 L 2836.5 115 Q 2833.8 115.6 2835 109.5 L 2827 83.5 L 2820.5 73 Q 2817.5 70 2810.5 71 L 2808.5 72 L 2808.5 71 L 2810.5 70 Z " /><path fill="rgb(252,110,33)" stroke="rgb(252,110,33)" stroke-width="1" opacity="0.996078431372549" d="M 2802.5 73 L 2804 73.5 L 2798.5 77 L 2799.5 75 L 2802.5 73 Z " /><path fill="rgb(252,110,33)" stroke="rgb(252,110,33)" stroke-width="1" opacity="0.996078431372549" d="M 2796.5 77 L 2795.5 79 L 2783.5 87 L 2785.5 84 L 2796.5 77 Z " /><path fill="rgb(252,110,33)" stroke="rgb(252,110,33)" stroke-width="1" opacity="0.996078431372549" d="M 2781.5 87 L 2779.5 90 L 2781.5 87 Z " /><path fill="rgb(252,110,33)" stroke="rgb(252,110,33)" stroke-width="1" opacity="0.996078431372549" d="M 2777.5 90 L 2775.5 93 L 2777.5 90 Z " /><path fill="rgb(252,110,33)" stroke="rgb(252,110,33)" stroke-width="1" opacity="0.996078431372549" d="M 2773.5 93 L 2770.5 97 L 2759.5 106 L 2759 104 L 2773.5 93 Z " /><path fill="rgb(252,110,33)" stroke="rgb(252,110,33)" stroke-width="1" opacity="0.996078431372549" d="M 63.5 101 L 64 554.5 L 63 554.5 L 63.5 101 Z " /><path fill="rgb(252,110,33)" stroke="rgb(252,110,33)" stroke-width="1" opacity="0.996078431372549" d="M 1087.5 101 L 1088 555.5 L 1087 555.5 L 1087.5 101 Z " /><path fill="rgb(252,110,33)" stroke="rgb(252,110,33)" stroke-width="1" opacity="0.996078431372549" d="M 3828.5 103 L 3829 104.5 L 3827 105.5 L 3828.5 103 Z " /><path fill="rgb(252,110,33)" stroke="rgb(252,110,33)" stroke-width="1" opacity="0.996078431372549" d="M 2757.5 106 L 2739.5 125 L 2745 118.5 L 2749.5 113 L 2757.5 106 Z " /><path fill="rgb(252,110,33)" stroke="rgb(252,110,33)" stroke-width="1" opacity="0.996078431372549" d="M 2468.5 108 L 2472 108.5 Q 2463.9 109.4 2461 115.5 L 2459.5 118 L 2460 116.5 L 2466.5 109 L 2468.5 108 Z " /><path fill="rgb(252,110,33)" stroke="rgb(252,110,33)" stroke-width="1" opacity="0.996078431372549" d="M 2476.5 108 Q 2482.3 107.3 2485 109.5 L 2482.5 110 Q 2481.3 107.8 2476.5 109 L 2476.5 108 Z " /><path fill="rgb(252,110,33)" stroke="rgb(252,110,33)" stroke-width="1" opacity="0.996078431372549" d="M 2486.5 110 L 2498.5 113 L 2500.5 115 L 2511.5 119 L 2537 137 Q 2535.9 139.7 2538.5 139 L 2544 143 Q 2542.9 145.7 2545.5 145 L 2551 149 Q 2549.9 151.7 2552.5 151 Q 2568.4 167.1 2587.5 180 L 2605 180.5 L 2587.5 181 L 2569.5 168 L 2524.5 129 L 2510.5 120 Q 2500.2 113.8 2486.5 111 L 2486.5 110 Z " /><path fill="rgb(252,110,33)" stroke="rgb(252,110,33)" stroke-width="1" opacity="0.996078431372549" d="M 3358.5 111 L 3360 114.5 L 3359 114.5 L 3358.5 111 Z " /><path fill="rgb(252,110,33)" stroke="rgb(252,110,33)" stroke-width="1" opacity="0.996078431372549" d="M 2836.5 116 L 2837 121.5 L 2836 121.5 L 2836.5 116 Z " /><path fill="rgb(252,110,33)" stroke="rgb(252,110,33)" stroke-width="1" opacity="0.996078431372549" d="M 2837.5 123 L 2839 129.5 L 2837 130 L 2837.5 123 Z " /><path fill="rgb(252,110,33)" stroke="rgb(252,110,33)" stroke-width="1" opacity="0.996078431372549" d="M 2737 126 L 2739 126.5 L 2734 130.5 L 2737 126 Z " /><path fill="rgb(252,110,33)" stroke="rgb(252,110,33)" stroke-width="1" opacity="0.996078431372549" d="M 2838.5 131 L 2840 136.5 L 2839.5 139 L 2838 138.5 L 2838.5 131 Z " /><path fill="rgb(252,110,33)" stroke="rgb(252,110,33)" stroke-width="1" opacity="0.996078431372549" d="M 2733.5 132 L 2731.5 135 L 2733.5 132 Z " /><path fill="rgb(252,110,33)" stroke="rgb(252,110,33)" stroke-width="1" opacity="0.996078431372549" d="M 2730.5 136 L 2728 139.5 L 2719.5 152 L 2720 150.5 L 2730.5 136 Z " /><path fill="rgb(252,110,33)" stroke="rgb(252,110,33)" stroke-width="1" opacity="0.996078431372549" d="M 3370.5 136 L 3372 139.5 L 3371 139.5 L 3370.5 136 Z " /><path fill="rgb(252,110,33)" stroke="rgb(252,110,33)" stroke-width="1" opacity="0.996078431372549" d="M 2451.5 137 L 2452 139.5 L 2451 139.5 L 2451.5 137 Z " /><path fill="rgb(252,110,33)" stroke="rgb(252,110,33)" stroke-width="1" opacity="0.996078431372549" d="M 3813.5 137 L 3814 138.5 L 3812 139.5 L 3813.5 137 Z " /><path fill="rgb(252,110,33)" stroke="rgb(252,110,33)" stroke-width="1" opacity="0.996078431372549" d="M 2839.5 140 L 2841 143.5 L 2841 145.5 L 2842 150.5 L 2842 152.5 L 2843 157.5 L 2843 159.5 Q 2841.2 165.8 2844 167.5 L 2844 169.5 L 2843.5 176 L 2839.5 140 Z " /><path fill="rgb(252,110,33)" stroke="rgb(252,110,33)" stroke-width="1" opacity="0.996078431372549" d="M 2449.5 145 L 2450 147.5 L 2449 147.5 L 2449.5 145 Z " /><path fill="rgb(252,110,33)" stroke="rgb(252,110,33)" stroke-width="1" opacity="0.996078431372549" d="M 2718.5 153 L 2717 155.5 L 2705 174.5 L 2700.5 179 L 2688 178.5 L 2700.5 178 L 2704 174.5 L 2718.5 153 Z " /><path fill="rgb(252,110,33)" stroke="rgb(252,110,33)" stroke-width="1" opacity="0.996078431372549" d="M 1457.5 155 L 1458.5 157 L 1457.5 155 Z " /><path fill="rgb(252,110,33)" stroke="rgb(252,110,33)" stroke-width="1" opacity="0.996078431372549" d="M 2446.5 157 L 2447 160.5 L 2446 160.5 L 2446.5 157 Z " /><path fill="rgb(252,110,33)" stroke="rgb(252,110,33)" stroke-width="1" opacity="0.996078431372549" d="M 3306.5 160 L 3307.5 162 L 3306.5 160 Z " /><path fill="rgb(252,110,33)" stroke="rgb(252,110,33)" stroke-width="1" opacity="0.996078431372549" d="M 3382.5 161 L 3384 164.5 L 3383 164.5 L 3382.5 161 Z " /><path fill="rgb(252,110,33)" stroke="rgb(252,110,33)" stroke-width="1" opacity="0.996078431372549" d="M 2445.5 162 L 2446 164.5 L 2445 164.5 L 2445.5 162 Z " /><path fill="rgb(252,110,33)" stroke="rgb(252,110,33)" stroke-width="1" opacity="0.996078431372549" d="M 3798.5 171 L 3799 172.5 L 3797 173.5 L 3798.5 171 Z " /><path fill="rgb(252,110,33)" stroke="rgb(252,110,33)" stroke-width="1" opacity="0.996078431372549" d="M 2634.5 177 L 2638 177.5 L 2634.5 178 L 2634.5 177 Z " /><path fill="rgb(252,110,33)" stroke="rgb(252,110,33)" stroke-width="1" opacity="0.996078431372549" d="M 2640.5 177 L 2683 177.5 L 2640.5 178 L 2640.5 177 Z " /><path fill="rgb(252,110,33)" stroke="rgb(252,110,33)" stroke-width="1" opacity="0.996078431372549" d="M 2684.5 177 L 2687 177.5 L 2684.5 178 L 2684.5 177 Z " /><path fill="rgb(252,110,33)" stroke="rgb(252,110,33)" stroke-width="1" opacity="0.996078431372549" d="M 2624.5 178 L 2632 178.5 L 2624.5 179 L 2624.5 178 Z " /><path fill="rgb(252,110,33)" stroke="rgb(252,110,33)" stroke-width="1" opacity="0.996078431372549" d="M 2608.5 179 L 2611 179.5 L 2608.5 180 L 2608.5 179 Z " /><path fill="rgb(252,110,33)" stroke="rgb(252,110,33)" stroke-width="1" opacity="0.996078431372549" d="M 2612.5 179 L 2620 179.5 L 2612.5 180 L 2612.5 179 Z " /><path fill="rgb(252,110,33)" stroke="rgb(252,110,33)" stroke-width="1" opacity="0.996078431372549" d="M 2441.5 182 L 2442 185.5 L 2441 185.5 L 2441.5 182 Z " /><path fill="rgb(252,110,33)" stroke="rgb(252,110,33)" stroke-width="1" opacity="0.996078431372549" d="M 2843.5 186 L 2844 199.5 L 2845 200.5 L 2844 202.5 L 2846 209.5 L 2868 231.5 L 2868 233 Q 2870.7 231.9 2870 234.5 L 2886 256.5 L 2896 275.5 L 2902 290.5 Q 2899.5 292 2903 293.5 L 2907 307.5 L 2907 309.5 L 2908 314 Q 2904.3 315.4 2906 309.5 Q 2889.5 247 2846 211.5 Q 2840.7 201.9 2843.5 186 Z " /><path fill="rgb(252,110,33)" stroke="rgb(252,110,33)" stroke-width="1" opacity="0.996078431372549" d="M 3394.5 186 L 3396 189.5 L 3395 189.5 L 3394.5 186 Z " /><path fill="rgb(252,110,33)" stroke="rgb(252,110,33)" stroke-width="1" opacity="0.996078431372549" d="M 2440.5 188 L 2441 191.5 L 2440 191.5 L 2440.5 188 Z " /><path fill="rgb(252,110,33)" stroke="rgb(252,110,33)" stroke-width="1" opacity="0.996078431372549" d="M 2439.5 195 L 2440 198.5 L 2439 198.5 L 2439.5 195 Z " /><path fill="rgb(252,110,33)" stroke="rgb(252,110,33)" stroke-width="1" opacity="0.996078431372549" d="M 2438.5 204 L 2439 206.5 L 2438 206.5 L 2438.5 204 Z " /><path fill="rgb(252,110,33)" stroke="rgb(252,110,33)" stroke-width="1" opacity="0.996078431372549" d="M 3783.5 205 L 3784 206.5 L 3782 207.5 L 3783.5 205 Z " /><path fill="rgb(252,110,33)" stroke="rgb(252,110,33)" stroke-width="1" opacity="0.996078431372549" d="M 2437.5 210 L 2438 214.5 L 2437 214.5 L 2437.5 210 Z " /><path fill="rgb(252,110,33)" stroke="rgb(252,110,33)" stroke-width="1" opacity="0.996078431372549" d="M 3406.5 211 L 3408 214.5 L 3407 214.5 L 3406.5 211 Z " /><path fill="rgb(252,110,33)" stroke="rgb(252,110,33)" stroke-width="1" opacity="0.996078431372549" d="M 2436.5 219 L 2437 221.5 L 2436 221.5 L 2436.5 219 Z " /><path fill="rgb(252,110,33)" stroke="rgb(252,110,33)" stroke-width="1" opacity="0.996078431372549" d="M 2435.5 227 L 2436 229.5 L 2435 229.5 L 2435.5 227 Z " /><path fill="rgb(252,110,33)" stroke="rgb(252,110,33)" stroke-width="1" opacity="0.996078431372549" d="M 2434.5 233 L 2435 236.5 L 2434 236.5 L 2434.5 233 Z " /><path fill="rgb(252,110,33)" stroke="rgb(252,110,33)" stroke-width="1" opacity="0.996078431372549" d="M 3418.5 237 L 3420 239.5 L 3419 239.5 L 3418.5 237 Z " /><path fill="rgb(252,110,33)" stroke="rgb(252,110,33)" stroke-width="1" opacity="0.996078431372549" d="M 3768.5 239 L 3769 240.5 L 3767 241.5 L 3768.5 239 Z " /><path fill="rgb(252,110,33)" stroke="rgb(252,110,33)" stroke-width="1" opacity="0.996078431372549" d="M 1497.5 244 L 1498 246.5 L 1497 246.5 L 1497.5 244 Z " /><path fill="rgb(252,110,33)" stroke="rgb(252,110,33)" stroke-width="1" opacity="0.996078431372549" d="M 3080.5 250 L 3078.5 253 L 3080.5 250 Z " /><path fill="rgb(252,110,33)" stroke="rgb(252,110,33)" stroke-width="1" opacity="0.996078431372549" d="M 3342.5 250 L 3343 252.5 L 3342 252.5 L 3342.5 250 Z " /><path fill="rgb(252,110,33)" stroke="rgb(252,110,33)" stroke-width="1" opacity="0.996078431372549" d="M 2430.5 251 L 2431 252.5 L 2429.5 255 L 2429 253.5 L 2430.5 251 Z " /><path fill="rgb(252,110,33)" stroke="rgb(252,110,33)" stroke-width="1" opacity="0.996078431372549" d="M 1234.5 252 L 1233.5 254 L 1234.5 252 Z " /><path fill="rgb(252,110,33)" stroke="rgb(252,110,33)" stroke-width="1" opacity="0.996078431372549" d="M 1498.5 254 L 1499 257.5 L 1498 257.5 L 1498.5 254 Z " /><path fill="rgb(252,110,33)" stroke="rgb(252,110,33)" stroke-width="1" opacity="0.996078431372549" d="M 1232.5 255 L 1230.5 258 L 1232.5 255 Z " /><path fill="rgb(252,110,33)" stroke="rgb(252,110,33)" stroke-width="1" opacity="0.996078431372549" d="M 3076.5 255 L 3076 256.5 L 3073.5 260 L 3075 257.5 L 3076.5 255 Z " /><path fill="rgb(252,110,33)" stroke="rgb(252,110,33)" stroke-width="1" opacity="0.996078431372549" d="M 2428.5 256 L 2429 257.5 L 2427.5 260 L 2427 258.5 L 2428.5 256 Z " /><path fill="rgb(252,110,33)" stroke="rgb(252,110,33)" stroke-width="1" opacity="0.996078431372549" d="M 1228.5 260 L 1228 261.5 L 1225.5 265 L 1227 262.5 L 1228.5 260 Z " /><path fill="rgb(252,110,33)" stroke="rgb(252,110,33)" stroke-width="1" opacity="0.996078431372549" d="M 3071.5 262 L 3070.5 264 L 3071.5 262 Z " /><path fill="rgb(252,110,33)" stroke="rgb(252,110,33)" stroke-width="1" opacity="0.996078431372549" d="M 2424.5 265 L 2424 266.5 L 2423.5 268 L 2423 266.5 L 2424.5 265 Z " /><path fill="rgb(252,110,33)" stroke="rgb(252,110,33)" stroke-width="1" opacity="0.996078431372549" d="M 3343.5 266 L 3344 272.5 L 3343 272.5 L 3343.5 266 Z " /><path fill="rgb(252,110,33)" stroke="rgb(252,110,33)" stroke-width="1" opacity="0.996078431372549" d="M 2422.5 269 L 2422 270.5 L 2419.5 275 L 2420 273.5 L 2422.5 269 Z " /><path fill="rgb(252,110,33)" stroke="rgb(252,110,33)" stroke-width="1" opacity="0.996078431372549" d="M 1300.5 272 L 1303 272.5 L 1300.5 273 L 1300.5 272 Z " /><path fill="rgb(252,110,33)" stroke="rgb(252,110,33)" stroke-width="1" opacity="0.996078431372549" d="M 3753.5 273 L 3754 274.5 L 3752 275.5 L 3753.5 273 Z " /><path fill="rgb(252,110,33)" stroke="rgb(252,110,33)" stroke-width="1" opacity="0.996078431372549" d="M 1310.5 274 L 1313 274.5 L 1310.5 275 L 1310.5 274 Z " /><path fill="rgb(252,110,33)" stroke="rgb(252,110,33)" stroke-width="1" opacity="0.996078431372549" d="M 1316.5 275 L 1319 275.5 L 1316.5 276 L 1316.5 275 Z " /><path fill="rgb(252,110,33)" stroke="rgb(252,110,33)" stroke-width="1" opacity="0.996078431372549" d="M 2418.5 276 L 2418 277.5 L 2415.5 282 L 2416 280.5 L 2418.5 276 Z " /><path fill="rgb(252,110,33)" stroke="rgb(252,110,33)" stroke-width="1" opacity="0.996078431372549" d="M 1329.5 277 L 1333 277.5 L 1329.5 278 L 1329.5 277 Z " /><path fill="rgb(252,110,33)" stroke="rgb(252,110,33)" stroke-width="1" opacity="0.996078431372549" d="M 1337.5 278 L 1340 278.5 L 1337.5 279 L 1337.5 278 Z " /><path fill="rgb(252,110,33)" stroke="rgb(252,110,33)" stroke-width="1" opacity="0.996078431372549" d="M 3343.5 278 L 3344 286.5 L 3343 286.5 L 3343.5 278 Z " /><path fill="rgb(252,110,33)" stroke="rgb(252,110,33)" stroke-width="1" opacity="0.996078431372549" d="M 1348.5 279 L 1351 279.5 L 1348.5 280 L 1348.5 279 Z " /><path fill="rgb(252,110,33)" stroke="rgb(252,110,33)" stroke-width="1" opacity="0.996078431372549" d="M 3192.5 279 L 3195 279.5 L 3192.5 280 L 3192.5 279 Z " /><path fill="rgb(252,110,33)" stroke="rgb(252,110,33)" stroke-width="1" opacity="0.996078431372549" d="M 1361.5 280 L 1366 280.5 L 1361.5 281 L 1361.5 280 Z " /><path fill="rgb(252,110,33)" stroke="rgb(252,110,33)" stroke-width="1" opacity="0.996078431372549" d="M 3206.5 280 L 3210 280.5 L 3206.5 281 L 3206.5 280 Z " /><path fill="rgb(252,110,33)" stroke="rgb(252,110,33)" stroke-width="1" opacity="0.996078431372549" d="M 2592.5 281 L 2596 281.5 L 2584.5 285 L 2570 298.5 L 2560.5 314 L 2560 312.5 Q 2567.2 298.2 2578.5 288 L 2592.5 281 Z " /><path fill="rgb(252,110,33)" stroke="rgb(252,110,33)" stroke-width="1" opacity="0.996078431372549" d="M 2601.5 281 Q 2618.8 283.2 2627 294.5 Q 2635.5 305.5 2639 321.5 L 2640 336.5 L 2641 337.5 L 2641 352.5 L 2637 372.5 L 2632 386.5 Q 2625.8 402.3 2613.5 412 L 2602.5 418 Q 2595.8 420.3 2585.5 419 Q 2573.6 415.9 2567 407.5 L 2559 395.5 L 2561 396.5 Q 2565.3 406.2 2573.5 412 L 2586.5 418 L 2597.5 418 Q 2613.5 413.5 2622 401.5 L 2630 387.5 L 2637 367.5 L 2639 357.5 L 2639 330.5 L 2634 309.5 Q 2628.8 296.2 2618.5 288 Q 2612.3 282.7 2601.5 282 L 2601.5 281 Z " /><path fill="rgb(252,110,33)" stroke="rgb(252,110,33)" stroke-width="1" opacity="0.996078431372549" d="M 2700.5 281 L 2704 281.5 Q 2689.3 283.8 2682 293.5 L 2671.5 307 L 2672 305.5 Q 2678.7 294.2 2688.5 286 L 2700.5 281 Z " /><path fill="rgb(252,110,33)" stroke="rgb(252,110,33)" stroke-width="1" opacity="0.996078431372549" d="M 2708.5 281 Q 2728 283 2736 296.5 Q 2743.9 307.6 2747 323.5 L 2747 362.5 L 2740 385.5 Q 2734.3 400.3 2723.5 410 Q 2716.7 416.2 2706.5 419 L 2693.5 419 Q 2680 415.5 2673 405.5 Q 2664.5 397 2662 382.5 L 2663 382.5 Q 2667.1 400.9 2679.5 411 L 2693.5 418 L 2705.5 418 Q 2719.9 413.9 2728 403.5 Q 2739.8 387.8 2745 365.5 L 2746 360.5 L 2746 326.5 L 2742 310.5 Q 2737.2 298.3 2728.5 290 L 2716.5 283 L 2708.5 282 L 2708.5 281 Z " /><path fill="rgb(252,110,33)" stroke="rgb(252,110,33)" stroke-width="1" opacity="0.996078431372549" d="M 2413.5 285 L 2413 286.5 L 2412.5 288 L 2412 286.5 L 2413.5 285 Z " /><path fill="rgb(252,110,33)" stroke="rgb(252,110,33)" stroke-width="1" opacity="0.996078431372549" d="M 3441.5 285 L 3443 287.5 L 3442 287.5 L 3441.5 285 Z " /><path fill="rgb(252,110,33)" stroke="rgb(252,110,33)" stroke-width="1" opacity="0.996078431372549" d="M 2411.5 289 L 2411 290.5 L 2404.5 304 L 2404 302.5 L 2411.5 289 Z " /><path fill="rgb(252,110,33)" stroke="rgb(252,110,33)" stroke-width="1" opacity="0.996078431372549" d="M 1498.5 292 L 1499 295.5 L 1498 295.5 L 1498.5 292 Z " /><path fill="rgb(252,110,33)" stroke="rgb(252,110,33)" stroke-width="1" opacity="0.996078431372549" d="M 2596.5 292 L 2606.5 293 L 2618 302.5 L 2625 315.5 L 2624 315.5 Q 2620.7 305.3 2613.5 299 Q 2608.5 293 2597.5 293 Q 2583.8 297.3 2577 308.5 L 2570 320.5 L 2565 338.5 L 2564 343.5 L 2564 369.5 L 2567 382.5 Q 2571.4 395.1 2580.5 403 Q 2584.5 408 2594.5 407 Q 2604.4 403.9 2610 396.5 L 2604.5 394 L 2599 388.5 L 2597 382.5 L 2598 382.5 Q 2598.6 388.4 2602.5 391 L 2612 395.5 Q 2605.4 406.9 2588.5 408 Q 2580 405.5 2575 399.5 Q 2567.5 390.5 2564 377.5 L 2563 372.5 L 2563 340.5 L 2570 316.5 Q 2576.8 304.4 2587.5 296 L 2596.5 292 Z " /><path fill="rgb(252,110,33)" stroke="rgb(252,110,33)" stroke-width="1" opacity="0.996078431372549" d="M 2704.5 292 L 2713.5 293 L 2724 300.5 L 2733 316.5 L 2732 316.5 Q 2728 304 2718.5 297 L 2710.5 293 L 2705.5 293 Q 2694.6 295.6 2689 303.5 Q 2681.4 310.9 2677 321.5 L 2672 340.5 L 2672 372.5 Q 2675.9 393.1 2689.5 404 L 2696.5 407 L 2701.5 407 Q 2711.1 404.1 2717 397.5 Q 2718.3 393.8 2714.5 395 L 2707 389.5 L 2705 384.5 L 2706 384.5 L 2711.5 392 L 2719 395.5 L 2713.5 402 Q 2707.8 407.8 2696.5 408 Q 2686.3 405.3 2681 397.5 L 2672 379.5 L 2671 367.5 L 2670 366.5 L 2670 344.5 L 2676 320.5 Q 2682.2 306.2 2693.5 297 L 2704.5 292 Z " /><path fill="rgb(252,110,33)" stroke="rgb(252,110,33)" stroke-width="1" opacity="0.996078431372549" d="M 1373.5 298 L 1376 298.5 L 1373.5 299 L 1373.5 298 Z " /><path fill="rgb(252,110,33)" stroke="rgb(252,110,33)" stroke-width="1" opacity="0.996078431372549" d="M 3217.5 298 L 3220 298.5 L 3217.5 299 L 3217.5 298 Z " /><path fill="rgb(252,110,33)" stroke="rgb(252,110,33)" stroke-width="1" opacity="0.996078431372549" d="M 3341.5 304 L 3342 306.5 L 3341 306.5 L 3341.5 304 Z " /><path fill="rgb(252,110,33)" stroke="rgb(252,110,33)" stroke-width="1" opacity="0.996078431372549" d="M 3738.5 307 L 3739 308.5 L 3737 309.5 L 3738.5 307 Z " /><path fill="rgb(252,110,33)" stroke="rgb(252,110,33)" stroke-width="1" opacity="0.996078431372549" d="M 2670.5 308 L 2670 309.5 L 2668.5 313 L 2668 311.5 L 2670.5 308 Z " /><path fill="rgb(252,110,33)" stroke="rgb(252,110,33)" stroke-width="1" opacity="0.996078431372549" d="M 3453.5 310 L 3456 314.5 L 3455 314.5 L 3453.5 310 Z " /><path fill="rgb(252,110,33)" stroke="rgb(252,110,33)" stroke-width="1" opacity="0.996078431372549" d="M 2667.5 314 L 2668 315.5 L 2666.5 318 L 2666 316.5 L 2667.5 314 Z " /><path fill="rgb(252,110,33)" stroke="rgb(252,110,33)" stroke-width="1" opacity="0.996078431372549" d="M 2559.5 315 L 2560 316.5 L 2558.5 319 L 2558 317.5 L 2559.5 315 Z " /><path fill="rgb(252,110,33)" stroke="rgb(252,110,33)" stroke-width="1" opacity="0.996078431372549" d="M 2907.5 315 L 2910 325.5 L 2910 327.5 L 2909.5 330 L 2908 327.5 L 2907.5 315 Z " /><path fill="rgb(252,110,33)" stroke="rgb(252,110,33)" stroke-width="1" opacity="0.996078431372549" d="M 2733.5 318 L 2734 321 L 2730 320.5 L 2733 320 L 2733.5 318 Z " /><path fill="rgb(252,110,33)" stroke="rgb(252,110,33)" stroke-width="1" opacity="0.996078431372549" d="M 2613.5 320 L 2617 320.5 Q 2609.9 320.9 2607 325.5 L 2601.5 335 L 2601 333.5 L 2609.5 322 L 2613.5 320 Z " /><path fill="rgb(252,110,33)" stroke="rgb(252,110,33)" stroke-width="1" opacity="0.996078431372549" d="M 2623.5 320 L 2626 320.5 L 2623.5 321 L 2623.5 320 Z " /><path fill="rgb(252,110,33)" stroke="rgb(252,110,33)" stroke-width="1" opacity="0.996078431372549" d="M 2721.5 320 L 2725 320.5 Q 2716.6 321.6 2713 327.5 L 2709.5 334 L 2709 332.5 L 2717.5 322 L 2721.5 320 Z " /><path fill="rgb(252,110,33)" stroke="rgb(252,110,33)" stroke-width="1" opacity="0.996078431372549" d="M 2556.5 323 L 2557 325.5 L 2556 325.5 L 2556.5 323 Z " /><path fill="rgb(252,110,33)" stroke="rgb(252,110,33)" stroke-width="1" opacity="0.996078431372549" d="M 2663.5 325 L 2664 327.5 L 2663 327.5 L 2663.5 325 Z " /><path fill="rgb(252,110,33)" stroke="rgb(252,110,33)" stroke-width="1" opacity="0.996078431372549" d="M 809.5 326 L 812 326.5 L 809.5 327 L 809.5 326 Z " /><path fill="rgb(252,110,33)" stroke="rgb(252,110,33)" stroke-width="1" opacity="0.996078431372549" d="M 2555.5 327 L 2556 329.5 L 2555 329.5 L 2555.5 327 Z " /><path fill="rgb(252,110,33)" stroke="rgb(252,110,33)" stroke-width="1" opacity="0.996078431372549" d="M 2662.5 330 L 2663 332.5 L 2662 332.5 L 2662.5 330 Z " /><path fill="rgb(252,110,33)" stroke="rgb(252,110,33)" stroke-width="1" opacity="0.996078431372549" d="M 835.5 331 L 838 331.5 L 835.5 332 L 835.5 331 Z " /><path fill="rgb(252,110,33)" stroke="rgb(252,110,33)" stroke-width="1" opacity="0.996078431372549" d="M 2909.5 331 L 2911 335.5 L 2911 337.5 L 2910.5 344 L 2909 337.5 L 2909.5 331 Z " /><path fill="rgb(252,110,33)" stroke="rgb(252,110,33)" stroke-width="1" opacity="0.996078431372549" d="M 842.5 332 L 845 332.5 L 842.5 333 L 842.5 332 Z " /><path fill="rgb(252,110,33)" stroke="rgb(252,110,33)" stroke-width="1" opacity="0.996078431372549" d="M 2554.5 332 L 2555 334.5 L 2554 334.5 L 2554.5 332 Z " /><path fill="rgb(252,110,33)" stroke="rgb(252,110,33)" stroke-width="1" opacity="0.996078431372549" d="M 861.5 334 L 864 334.5 L 861.5 335 L 861.5 334 Z " /><path fill="rgb(252,110,33)" stroke="rgb(252,110,33)" stroke-width="1" opacity="0.996078431372549" d="M 2661.5 334 L 2662 337.5 L 2661 337.5 L 2661.5 334 Z " /><path fill="rgb(252,110,33)" stroke="rgb(252,110,33)" stroke-width="1" opacity="0.996078431372549" d="M 873.5 335 L 876 335.5 L 873.5 336 L 873.5 335 Z " /><path fill="rgb(252,110,33)" stroke="rgb(252,110,33)" stroke-width="1" opacity="0.996078431372549" d="M 3465.5 335 L 3468 339.5 L 3467 339.5 L 3465.5 335 Z " /><path fill="rgb(252,110,33)" stroke="rgb(252,110,33)" stroke-width="1" opacity="0.996078431372549" d="M 891.5 336 L 898 336.5 L 891.5 337 L 891.5 336 Z " /><path fill="rgb(252,110,33)" stroke="rgb(252,110,33)" stroke-width="1" opacity="0.996078431372549" d="M 2553.5 337 L 2554 340.5 L 2553 340.5 L 2553.5 337 Z " /><path fill="rgb(252,110,33)" stroke="rgb(252,110,33)" stroke-width="1" opacity="0.996078431372549" d="M 915.5 338 L 916 354.5 L 915 354.5 L 915.5 338 Z " /><path fill="rgb(252,110,33)" stroke="rgb(252,110,33)" stroke-width="1" opacity="0.996078431372549" d="M 2390.5 340 L 2391 342.5 L 2390 342.5 L 2390.5 340 Z " /><path fill="rgb(252,110,33)" stroke="rgb(252,110,33)" stroke-width="1" opacity="0.996078431372549" d="M 2660.5 340 L 2661 344.5 L 2660 344.5 L 2660.5 340 Z " /><path fill="rgb(252,110,33)" stroke="rgb(252,110,33)" stroke-width="1" opacity="0.996078431372549" d="M 3723.5 341 L 3724 342.5 L 3722 343.5 L 3723.5 341 Z " /><path fill="rgb(252,110,33)" stroke="rgb(252,110,33)" stroke-width="1" opacity="0.996078431372549" d="M 2598.5 342 L 2599 344.5 L 2598 344.5 L 2598.5 342 Z " /><path fill="rgb(252,110,33)" stroke="rgb(252,110,33)" stroke-width="1" opacity="0.996078431372549" d="M 3330.5 343 L 3331 344.5 L 3329 345.5 L 3330.5 343 Z " /><path fill="rgb(252,110,33)" stroke="rgb(252,110,33)" stroke-width="1" opacity="0.996078431372549" d="M 2389.5 344 L 2390 346.5 L 2389 346.5 L 2389.5 344 Z " /><path fill="rgb(252,110,33)" stroke="rgb(252,110,33)" stroke-width="1" opacity="0.996078431372549" d="M 2552.5 344 L 2553 349.5 L 2552 349.5 L 2552.5 344 Z " /><path fill="rgb(252,110,33)" stroke="rgb(252,110,33)" stroke-width="1" opacity="0.996078431372549" d="M 2705.5 344 L 2706 346.5 L 2705 346.5 L 2705.5 344 Z " /><path fill="rgb(252,110,33)" stroke="rgb(252,110,33)" stroke-width="1" opacity="0.996078431372549" d="M 2910.5 345 Q 2912.9 349.1 2912 356.5 L 2911 357.5 L 2910.5 369 L 2910.5 345 Z " /><path fill="rgb(252,110,33)" stroke="rgb(252,110,33)" stroke-width="1" opacity="0.996078431372549" d="M 2597.5 346 L 2598 348.5 L 2597 348.5 L 2597.5 346 Z " /><path fill="rgb(252,110,33)" stroke="rgb(252,110,33)" stroke-width="1" opacity="0.996078431372549" d="M 2704.5 348 L 2705 351.5 L 2704 351.5 L 2704.5 348 Z " /><path fill="rgb(252,110,33)" stroke="rgb(252,110,33)" stroke-width="1" opacity="0.996078431372549" d="M 2388.5 349 L 2389 351.5 L 2388 351.5 L 2388.5 349 Z " /><path fill="rgb(252,110,33)" stroke="rgb(252,110,33)" stroke-width="1" opacity="0.996078431372549" d="M 2659.5 350 L 2660 370.5 L 2659 370.5 L 2659.5 350 Z " /><path fill="rgb(252,110,33)" stroke="rgb(252,110,33)" stroke-width="1" opacity="0.996078431372549" d="M 2596.5 351 L 2597 354.5 L 2596 354.5 L 2596.5 351 Z " /><path fill="rgb(252,110,33)" stroke="rgb(252,110,33)" stroke-width="1" opacity="0.996078431372549" d="M 3326.5 352 L 3325.5 354 L 3326.5 352 Z " /><path fill="rgb(252,110,33)" stroke="rgb(252,110,33)" stroke-width="1" opacity="0.996078431372549" d="M 2703.5 354 L 2704 360.5 L 2703 360.5 L 2703.5 354 Z " /><path fill="rgb(252,110,33)" stroke="rgb(252,110,33)" stroke-width="1" opacity="0.996078431372549" d="M 897.5 355 L 907 355.5 L 897.5 356 L 897.5 355 Z " /><path fill="rgb(252,110,33)" stroke="rgb(252,110,33)" stroke-width="1" opacity="0.996078431372549" d="M 2387.5 355 L 2388 357.5 L 2387 357.5 L 2387.5 355 Z " /><path fill="rgb(252,110,33)" stroke="rgb(252,110,33)" stroke-width="1" opacity="0.996078431372549" d="M 1479.5 356 L 1480 357.5 L 1478 358.5 L 1479.5 356 Z " /><path fill="rgb(252,110,33)" stroke="rgb(252,110,33)" stroke-width="1" opacity="0.996078431372549" d="M 2595.5 359 L 2596 371.5 L 2595 371.5 L 2595.5 359 Z " /><path fill="rgb(252,110,33)" stroke="rgb(252,110,33)" stroke-width="1" opacity="0.996078431372549" d="M 3322.5 359 L 3322 360.5 L 3320.5 363 L 3321 361.5 L 3322.5 359 Z " /><path fill="rgb(252,110,33)" stroke="rgb(252,110,33)" stroke-width="1" opacity="0.996078431372549" d="M 1477.5 360 L 1477 361.5 L 1475.5 364 L 1476 362.5 L 1477.5 360 Z " /><path fill="rgb(252,110,33)" stroke="rgb(252,110,33)" stroke-width="1" opacity="0.996078431372549" d="M 3477.5 360 L 3480 364.5 L 3479 364.5 L 3477.5 360 Z " /><path fill="rgb(252,110,33)" stroke="rgb(252,110,33)" stroke-width="1" opacity="0.996078431372549" d="M 2386.5 361 L 2387 366.5 L 2386 366.5 L 2386.5 361 Z " /><path fill="rgb(252,110,33)" stroke="rgb(252,110,33)" stroke-width="1" opacity="0.996078431372549" d="M 1473.5 366 L 1473 367.5 L 1470.5 371 L 1472 368.5 L 1473.5 366 Z " /><path fill="rgb(252,110,33)" stroke="rgb(252,110,33)" stroke-width="1" opacity="0.996078431372549" d="M 3316.5 368 L 3315.5 370 L 3316.5 368 Z " /><path fill="rgb(252,110,33)" stroke="rgb(252,110,33)" stroke-width="1" opacity="0.996078431372549" d="M 2552.5 370 L 2553 373.5 L 2552 373.5 L 2552.5 370 Z " /><path fill="rgb(252,110,33)" stroke="rgb(252,110,33)" stroke-width="1" opacity="0.996078431372549" d="M 2703.5 370 L 2704 375.5 L 2703 375.5 L 2703.5 370 Z " /><path fill="rgb(252,110,33)" stroke="rgb(252,110,33)" stroke-width="1" opacity="0.996078431372549" d="M 2909 370 L 2911 370.5 L 2910 373.5 L 2909.5 375 L 2909 370 Z " /><path fill="rgb(252,110,33)" stroke="rgb(252,110,33)" stroke-width="1" opacity="0.996078431372549" d="M 3314.5 371 L 3312.5 374 L 3314.5 371 Z " /><path fill="rgb(252,110,33)" stroke="rgb(252,110,33)" stroke-width="1" opacity="0.996078431372549" d="M 1468.5 373 L 1467.5 375 L 1468.5 373 Z " /><path fill="rgb(252,110,33)" stroke="rgb(252,110,33)" stroke-width="1" opacity="0.996078431372549" d="M 2660.5 373 L 2661 376.5 L 2660 376.5 L 2660.5 373 Z " /><path fill="rgb(252,110,33)" stroke="rgb(252,110,33)" stroke-width="1" opacity="0.996078431372549" d="M 1466.5 376 L 1462.5 381 L 1466.5 376 Z " /><path fill="rgb(252,110,33)" stroke="rgb(252,110,33)" stroke-width="1" opacity="0.996078431372549" d="M 2553.5 376 L 2554 378.5 L 2553 378.5 L 2553.5 376 Z " /><path fill="rgb(252,110,33)" stroke="rgb(252,110,33)" stroke-width="1" opacity="0.996078431372549" d="M 2596.5 376 L 2597 379.5 L 2596 379.5 L 2596.5 376 Z " /><path fill="rgb(252,110,33)" stroke="rgb(252,110,33)" stroke-width="1" opacity="0.996078431372549" d="M 2909.5 376 L 2909 379.5 L 2906 396.5 L 2904 399.5 L 2902 409.5 L 2900 411.5 L 2900 413.5 L 2896 422.5 L 2896.5 424 Q 2894.3 424.8 2895 422.5 L 2901 408.5 L 2908 382.5 L 2908 377.5 L 2909.5 376 Z " /><path fill="rgb(252,110,33)" stroke="rgb(252,110,33)" stroke-width="1" opacity="0.996078431372549" d="M 3310.5 376 L 3308.5 379 L 3310.5 376 Z " /><path fill="rgb(252,110,33)" stroke="rgb(252,110,33)" stroke-width="1" opacity="0.996078431372549" d="M 2385.5 378 L 2386 381.5 L 2385 381.5 L 2385.5 378 Z " /><path fill="rgb(252,110,33)" stroke="rgb(252,110,33)" stroke-width="1" opacity="0.996078431372549" d="M 2661.5 378 L 2662 380.5 L 2661 380.5 L 2661.5 378 Z " /><path fill="rgb(252,110,33)" stroke="rgb(252,110,33)" stroke-width="1" opacity="0.996078431372549" d="M 2704.5 379 L 2705 382.5 L 2704 382.5 L 2704.5 379 Z " /><path fill="rgb(252,110,33)" stroke="rgb(252,110,33)" stroke-width="1" opacity="0.996078431372549" d="M 2554.5 380 L 2555 382.5 L 2554 382.5 L 2554.5 380 Z " /><path fill="rgb(252,110,33)" stroke="rgb(252,110,33)" stroke-width="1" opacity="0.996078431372549" d="M 3307.5 380 L 3295.5 393 L 3307.5 380 Z " /><path fill="rgb(252,110,33)" stroke="rgb(252,110,33)" stroke-width="1" opacity="0.996078431372549" d="M 3489.5 384 L 3491 387.5 L 3490 387.5 L 3489.5 384 Z " /><path fill="rgb(252,110,33)" stroke="rgb(252,110,33)" stroke-width="1" opacity="0.996078431372549" d="M 1458.5 385 L 1451 393.5 L 1450.5 395 L 1450 393.5 L 1458.5 385 Z " /><path fill="rgb(252,110,33)" stroke="rgb(252,110,33)" stroke-width="1" opacity="0.996078431372549" d="M 2557.5 390 L 2559 393.5 L 2558 393.5 L 2557.5 390 Z " /><path fill="rgb(252,110,33)" stroke="rgb(252,110,33)" stroke-width="1" opacity="0.996078431372549" d="M 2386.5 392 L 2387 394.5 L 2386 394.5 L 2386.5 392 Z " /><path fill="rgb(252,110,33)" stroke="rgb(252,110,33)" stroke-width="1" opacity="0.996078431372549" d="M 222.5 402 L 224 404.5 L 223 404.5 L 222.5 402 Z " /><path fill="rgb(252,110,33)" stroke="rgb(252,110,33)" stroke-width="1" opacity="0.996078431372549" d="M 2388.5 404 L 2389 406.5 L 2388 406.5 L 2388.5 404 Z " /><path fill="rgb(252,110,33)" stroke="rgb(252,110,33)" stroke-width="1" opacity="0.996078431372549" d="M 3498.5 404 L 3499 554.5 L 3498 554.5 L 3498.5 404 Z " /><path fill="rgb(252,110,33)" stroke="rgb(252,110,33)" stroke-width="1" opacity="0.996078431372549" d="M 2389.5 408 L 2390 410.5 L 2389 410.5 L 2389.5 408 Z " /><path fill="rgb(252,110,33)" stroke="rgb(252,110,33)" stroke-width="1" opacity="0.996078431372549" d="M 2391.5 415 L 2392 417.5 L 2391 417.5 L 2391.5 415 Z " /><path fill="rgb(252,110,33)" stroke="rgb(252,110,33)" stroke-width="1" opacity="0.996078431372549" d="M 2392.5 419 L 2394 422.5 L 2393 422.5 L 2392.5 419 Z " /><path fill="rgb(252,110,33)" stroke="rgb(252,110,33)" stroke-width="1" opacity="0.996078431372549" d="M 2894 425 L 2896 425.5 L 2894 426.5 L 2894 425 Z " /><path fill="rgb(252,110,33)" stroke="rgb(252,110,33)" stroke-width="1" opacity="0.996078431372549" d="M 2395.5 426 L 2397 429.5 L 2396 429.5 L 2395.5 426 Z " /><path fill="rgb(252,110,33)" stroke="rgb(252,110,33)" stroke-width="1" opacity="0.996078431372549" d="M 2893 428 L 2895 428.5 L 2892 432.5 L 2891 438 L 2889 437.5 L 2893 428 Z " /><path fill="rgb(252,110,33)" stroke="rgb(252,110,33)" stroke-width="1" opacity="0.996078431372549" d="M 2398.5 433 L 2401 437.5 L 2399 436.5 L 2398.5 433 Z " /><path fill="rgb(252,110,33)" stroke="rgb(252,110,33)" stroke-width="1" opacity="0.996078431372549" d="M 2401.5 439 L 2404 443.5 L 2402 442.5 L 2401.5 439 Z " /><path fill="rgb(252,110,33)" stroke="rgb(252,110,33)" stroke-width="1" opacity="0.996078431372549" d="M 2888.5 439 L 2890 439.5 L 2876 463 Q 2873.3 461.9 2874 464.5 L 2865 477 Q 2862.3 475.9 2863 478.5 L 2862 481 L 2858 483.5 L 2849.5 493 L 2846.5 495 L 2839 500 Q 2840.1 502.7 2837.5 502 L 2831.5 507 L 2812.5 518 L 2782.5 532 L 2782.5 531 Q 2806.7 521.2 2827.5 508 Q 2846.9 496.4 2861 479.5 Q 2876.9 461.4 2888.5 439 Z " /><path fill="rgb(252,110,33)" stroke="rgb(252,110,33)" stroke-width="1" opacity="0.996078431372549" d="M 1273.5 445 L 1274 555.5 L 1273 555.5 L 1273.5 445 Z " /><path fill="rgb(252,110,33)" stroke="rgb(252,110,33)" stroke-width="1" opacity="0.996078431372549" d="M 2404.5 445 L 2405.5 447 L 2404.5 445 Z " /><path fill="rgb(252,110,33)" stroke="rgb(252,110,33)" stroke-width="1" opacity="0.996078431372549" d="M 2406.5 448 L 2407.5 450 L 2406.5 448 Z " /><path fill="rgb(252,110,33)" stroke="rgb(252,110,33)" stroke-width="1" opacity="0.996078431372549" d="M 2408.5 451 L 2410 453.5 L 2409 453.5 L 2408.5 451 Z " /><path fill="rgb(252,110,33)" stroke="rgb(252,110,33)" stroke-width="1" opacity="0.996078431372549" d="M 2411.5 455 L 2416 462.5 L 2439.5 487 L 2446 491.5 L 2444.5 491 L 2432 481.5 L 2415 462.5 L 2411 456.5 L 2411.5 455 Z " /><path fill="rgb(252,110,33)" stroke="rgb(252,110,33)" stroke-width="1" opacity="0.996078431372549" d="M 2428 468 Q 2431.8 467.3 2433 470.5 L 2433 472 L 2429 472 L 2428 468 Z " /><path fill="rgb(252,110,33)" stroke="rgb(252,110,33)" stroke-width="1" opacity="0.996078431372549" d="M 2447.5 492 L 2448.5 494 L 2447.5 492 Z " /><path fill="rgb(252,110,33)" stroke="rgb(252,110,33)" stroke-width="1" opacity="0.996078431372549" d="M 2450.5 494 L 2452.5 497 L 2450.5 494 Z " /><path fill="rgb(252,110,33)" stroke="rgb(252,110,33)" stroke-width="1" opacity="0.996078431372549" d="M 2454.5 497 L 2458.5 502 L 2454.5 497 Z " /><path fill="rgb(252,110,33)" stroke="rgb(252,110,33)" stroke-width="1" opacity="0.996078431372549" d="M 2460.5 503 L 2466 507.5 L 2461.5 504 L 2460.5 503 Z " /><path fill="rgb(252,110,33)" stroke="rgb(252,110,33)" stroke-width="1" opacity="0.996078431372549" d="M 2467.5 508 L 2474 513.5 L 2472.5 513 L 2467.5 508 Z " /><path fill="rgb(252,110,33)" stroke="rgb(252,110,33)" stroke-width="1" opacity="0.996078431372549" d="M 2475.5 514 L 2480 517.5 L 2478.5 517 L 2475.5 514 Z " /><path fill="rgb(252,110,33)" stroke="rgb(252,110,33)" stroke-width="1" opacity="0.996078431372549" d="M 2483.5 520 L 2493 525.5 L 2491.5 525 L 2483.5 521 L 2483.5 520 Z " /><path fill="rgb(252,110,33)" stroke="rgb(252,110,33)" stroke-width="1" opacity="0.996078431372549" d="M 2494.5 526 L 2497 527.5 L 2495.5 528 L 2494.5 526 Z " /><path fill="rgb(252,110,33)" stroke="rgb(252,110,33)" stroke-width="1" opacity="0.996078431372549" d="M 2498.5 528 L 2499.5 530 L 2498.5 528 Z " /><path fill="rgb(252,110,33)" stroke="rgb(252,110,33)" stroke-width="1" opacity="0.996078431372549" d="M 2501.5 530 L 2510 535.5 L 2508.5 535 Q 2502.3 533.6 2501.5 530 Z " /><path fill="rgb(252,110,33)" stroke="rgb(252,110,33)" stroke-width="1" opacity="0.996078431372549" d="M 2779.5 532 L 2781 532.5 L 2775.5 535 L 2775.5 534 L 2779.5 532 Z " /><path fill="rgb(252,110,33)" stroke="rgb(252,110,33)" stroke-width="1" opacity="0.996078431372549" d="M 2772.5 535 L 2774 535.5 L 2758.5 542 L 2758.5 541 L 2772.5 535 Z " /><path fill="rgb(252,110,33)" stroke="rgb(252,110,33)" stroke-width="1" opacity="0.996078431372549" d="M 2513.5 537 L 2514.5 539 L 2513.5 537 Z " /><path fill="rgb(252,110,33)" stroke="rgb(252,110,33)" stroke-width="1" opacity="0.996078431372549" d="M 2516.5 539 L 2522 542.5 L 2520.5 542 Q 2516.5 541.5 2516.5 539 Z " /><path fill="rgb(252,110,33)" stroke="rgb(252,110,33)" stroke-width="1" opacity="0.996078431372549" d="M 2755.5 542 L 2757 542.5 L 2750.5 545 L 2750.5 544 L 2755.5 542 Z " /><path fill="rgb(252,110,33)" stroke="rgb(252,110,33)" stroke-width="1" opacity="0.996078431372549" d="M 2747.5 545 L 2749 545.5 L 2738.5 549 L 2738.5 548 L 2747.5 545 Z " /><path fill="rgb(252,110,33)" stroke="rgb(252,110,33)" stroke-width="1" opacity="0.996078431372549" d="M 2529.5 546 L 2535 548.5 L 2533.5 549 L 2529.5 547 L 2529.5 546 Z " /><path fill="rgb(252,110,33)" stroke="rgb(252,110,33)" stroke-width="1" opacity="0.996078431372549" d="M 2731.5 550 L 2734 550.5 L 2731.5 551 L 2731.5 550 Z " /><path fill="rgb(252,110,33)" stroke="rgb(252,110,33)" stroke-width="1" opacity="0.996078431372549" d="M 2727.5 551 L 2730 551.5 L 2724.5 553 L 2724.5 552 L 2727.5 551 Z " /><path fill="rgb(252,110,33)" stroke="rgb(252,110,33)" stroke-width="1" opacity="0.996078431372549" d="M 2549.5 553 L 2552 553.5 L 2549.5 554 L 2549.5 553 Z " /><path fill="rgb(252,110,33)" stroke="rgb(252,110,33)" stroke-width="1" opacity="0.996078431372549" d="M 2719.5 553 L 2723 553.5 L 2715.5 555 L 2715.5 554 L 2719.5 553 Z " /><path fill="rgb(252,110,33)" stroke="rgb(252,110,33)" stroke-width="1" opacity="0.996078431372549" d="M 2553.5 554 L 2557 554.5 L 2553.5 555 L 2553.5 554 Z " /><path fill="rgb(252,110,33)" stroke="rgb(252,110,33)" stroke-width="1" opacity="0.996078431372549" d="M 2558.5 555 L 2561 555.5 L 2558.5 556 L 2558.5 555 Z " /><path fill="rgb(252,110,33)" stroke="rgb(252,110,33)" stroke-width="1" opacity="0.996078431372549" d="M 2710.5 555 L 2714 555.5 L 2710.5 556 L 2710.5 555 Z " /><path fill="rgb(252,110,33)" stroke="rgb(252,110,33)" stroke-width="1" opacity="0.996078431372549" d="M 2563.5 556 L 2567 556.5 L 2563.5 557 L 2563.5 556 Z " /><path fill="rgb(252,110,33)" stroke="rgb(252,110,33)" stroke-width="1" opacity="0.996078431372549" d="M 2704.5 556 L 2709 556.5 L 2704.5 557 L 2704.5 556 Z " /><path fill="rgb(252,110,33)" stroke="rgb(252,110,33)" stroke-width="1" opacity="0.996078431372549" d="M 2569.5 557 L 2572 557.5 L 2569.5 558 L 2569.5 557 Z " /><path fill="rgb(252,110,33)" stroke="rgb(252,110,33)" stroke-width="1" opacity="0.996078431372549" d="M 2697.5 557 L 2701 557.5 L 2697.5 558 L 2697.5 557 Z " /><path fill="rgb(252,110,33)" stroke="rgb(252,110,33)" stroke-width="1" opacity="0.996078431372549" d="M 2575.5 558 L 2578 558.5 L 2575.5 559 L 2575.5 558 Z " /><path fill="rgb(252,110,33)" stroke="rgb(252,110,33)" stroke-width="1" opacity="0.996078431372549" d="M 2690.5 558 L 2694 558.5 L 2690.5 559 L 2690.5 558 Z " /><path fill="rgb(252,110,33)" stroke="rgb(252,110,33)" stroke-width="1" opacity="0.996078431372549" d="M 2581.5 559 L 2584 559.5 L 2581.5 560 L 2581.5 559 Z " /><path fill="rgb(252,110,33)" stroke="rgb(252,110,33)" stroke-width="1" opacity="0.996078431372549" d="M 2682.5 559 L 2688 559.5 L 2682.5 560 L 2682.5 559 Z " /><path fill="rgb(252,110,33)" stroke="rgb(252,110,33)" stroke-width="1" opacity="0.996078431372549" d="M 2586.5 560 L 2592 560.5 L 2586.5 561 L 2586.5 560 Z " /><path fill="rgb(252,110,33)" stroke="rgb(252,110,33)" stroke-width="1" opacity="0.996078431372549" d="M 2671.5 560 L 2679 560.5 L 2671.5 561 L 2671.5 560 Z " /><path fill="rgb(252,110,33)" stroke="rgb(252,110,33)" stroke-width="1" opacity="0.996078431372549" d="M 2596.5 561 L 2602 561.5 L 2596.5 562 L 2596.5 561 Z " /><path fill="rgb(252,110,33)" stroke="rgb(252,110,33)" stroke-width="1" opacity="0.996078431372549" d="M 2657.5 561 L 2666 561.5 L 2657.5 562 L 2657.5 561 Z " /><path fill="rgb(252,110,33)" stroke="rgb(252,110,33)" stroke-width="1" opacity="0.996078431372549" d="M 2611.5 562 L 2644 562.5 L 2611.5 563 L 2611.5 562 Z " /><path fill="rgb(252,110,33)" stroke="rgb(252,110,33)" stroke-width="1" opacity="0.996078431372549" d="M 2645.5 562 L 2648 562.5 L 2645.5 563 L 2645.5 562 Z " /><path fill="rgb(253,111,34)" stroke="rgb(253,111,34)" stroke-width="1" opacity="1" d="M 2807.5 71 L 2809.5 72 Q 2811 69.5 2816.5 71 L 2821.5 74 L 2823 73.5 L 2822 75.5 L 2825 76.5 L 2824 78.5 L 2826.5 83 L 2828 82.5 L 2827 85.5 L 2829.5 91 L 2831 90.5 L 2830 93.5 L 2832.5 100 L 2834 99.5 L 2833 103.5 Q 2835.7 108.1 2835 115 L 2837 115.5 Q 2834.8 116.7 2836 121.5 L 2837 121.5 L 2837.5 119 L 2838 122.5 L 2837 123.5 L 2837 130 L 2839 130.5 L 2838 131.5 L 2838 139 L 2840 139.5 L 2839 144.5 L 2841 144.5 Q 2838.5 146 2840 151.5 L 2842 151.5 Q 2839.3 153.3 2841 159.5 L 2842 160.5 L 2842 169.5 L 2844 177.5 L 2843 179.5 L 2843 181.5 L 2844 185.5 L 2843 186.5 L 2843 202.5 L 2844 202.5 L 2844.5 201 L 2845 202.5 L 2844 207.5 L 2845.5 210 L 2847 209.5 L 2846 211.5 L 2867.5 233 L 2869 232.5 L 2869 234.5 L 2881.5 252 L 2883 251.5 L 2882 253.5 L 2885.5 259 L 2887 258.5 L 2886 260.5 Q 2895.4 274.1 2900.5 292 L 2902 291.5 L 2901 294.5 L 2905.5 309 L 2907 308.5 L 2906 314 L 2908 314.5 L 2907 319.5 Q 2909.8 321.3 2908 327.5 L 2910 330.5 Q 2907.5 332 2909 337.5 L 2911 344.5 L 2910 345.5 L 2910 368.5 L 2910.5 370 Q 2907.1 369.1 2909 374.5 L 2909.5 378 L 2908 377.5 L 2909 384.5 L 2908 384.5 L 2907.5 383 L 2904 398.5 L 2904.5 400 L 2903 399.5 L 2900 410.5 L 2900.5 412 L 2899 411.5 L 2897 419.5 L 2897.5 421 L 2896 420.5 L 2897 422.5 L 2895 422.5 L 2896 424.5 L 2894 425 L 2895 427.5 L 2893 428 L 2894 430.5 L 2892 430.5 L 2893 432.5 L 2891 432.5 L 2889 437.5 L 2889.5 439 L 2887 440.5 L 2886 443.5 L 2886.5 445 L 2885 444.5 L 2879 455.5 L 2879.5 457 Q 2878.3 454.8 2877 457.5 L 2878 459.5 L 2875 460.5 L 2874 462.5 L 2874.5 464 Q 2873.3 461.8 2872 464.5 L 2873 466.5 L 2870 467.5 L 2869 469.5 L 2869.5 471 Q 2867.7 468.2 2866 472.5 L 2867 474.5 L 2863 476.5 L 2863.5 478 Q 2862.3 475.8 2861 478.5 L 2860 480.5 Q 2862.8 482.3 2858.5 484 L 2857.5 483 L 2848 492.5 L 2848.5 494 L 2847.5 493 L 2844.5 496 L 2842 497.5 L 2842.5 499 L 2840.5 499 L 2839 499.5 L 2839.5 501 Q 2838 498.5 2836.5 502 L 2819 512.5 L 2819.5 514 L 2817.5 513 L 2808 518.5 L 2808.5 520 L 2806.5 519 L 2792 526.5 L 2792.5 528 L 2790.5 527 L 2788 528.5 L 2788.5 530 L 2786.5 529 L 2782 531 L 2781.5 533 L 2779.5 532 L 2775 534 L 2774.5 536 L 2772.5 535 L 2758 541 L 2757.5 543 L 2755.5 542 L 2750 544 L 2749.5 546 L 2747.5 545 L 2738 548 L 2737.5 550 L 2735 549 L 2734.5 551 L 2731 550 L 2730.5 552 L 2727.5 551 L 2714.5 555 L 2704.5 556 L 2701.5 558 L 2697.5 557 L 2694.5 559 L 2690.5 558 L 2681.5 560 L 2671.5 560 L 2668.5 562 L 2665.5 561 Q 2656.5 560 2651.5 563 L 2649.5 562 L 2647.5 562 L 2644.5 563 L 2643.5 562 L 2611.5 562 L 2609.5 563 L 2606.5 562 L 2596.5 561 L 2594.5 562 L 2591.5 560 L 2581.5 559 L 2579.5 559 L 2575.5 558 L 2573.5 558 L 2569.5 557 Q 2568 559.5 2566.5 556 L 2561.5 556 L 2543.5 551 Q 2542 553.5 2540.5 550 L 2537.5 549 Q 2536 551.5 2534.5 548 Q 2522.3 544.2 2513.5 537 L 2512 537.5 L 2511.5 536 L 2510 536.5 L 2508.5 534 L 2501.5 530 L 2500 530.5 L 2498.5 528 L 2497 528.5 Q 2497.8 526.3 2495.5 527 L 2486.5 521 L 2482 520 L 2481.5 518 L 2480 518.5 L 2478.5 516 L 2475.5 514 L 2474 514.5 L 2472.5 512 L 2468.5 509 Q 2467.3 511.2 2466 508.5 L 2461.5 503 Q 2458.2 504.1 2459 501.5 L 2455.5 498 Q 2454.3 500.3 2453 497.5 L 2450.5 494 L 2449 494.5 L 2447.5 492 L 2446 492.5 L 2444.5 490 L 2441.5 488 L 2440 488.5 L 2440.5 487 L 2424 471.5 Q 2416 464.6 2412 455 Q 2409 456.3 2410 452.5 L 2407 450.5 Q 2409.3 449.3 2406.5 448 L 2405 447.5 Q 2407.5 446 2404 444.5 L 2402 439 L 2400 438.5 L 2400 436.5 L 2396 426 L 2394 425.5 L 2394 423.5 L 2389 404.5 L 2387 401.5 L 2388 399.5 L 2386 395.5 L 2387 392.5 L 2385 385.5 L 2385 383.5 L 2386 378.5 L 2385 376.5 L 2386 374.5 L 2386 372.5 Q 2386.5 352.5 2392 337.5 Q 2389.5 336 2393 334.5 L 2398 319.5 L 2397 318.5 Q 2400.1 316.8 2398.5 315 L 2400 314.5 L 2399.5 313 Q 2402.1 313.8 2401 310.5 L 2401.5 308 L 2403 307.5 L 2402.5 306 L 2404 305.5 L 2403.5 304 Q 2405.8 304.8 2405 302.5 L 2412 289.5 L 2411.5 288 Q 2413.8 288.8 2413 286.5 L 2413.5 284 Q 2415.8 284.8 2415 282.5 L 2419 276.5 L 2418.5 275 L 2421 273.5 L 2423 269.5 L 2422.5 268 Q 2424.8 268.8 2424 266.5 L 2424.5 264 Q 2426.8 264.8 2426 262.5 L 2426.5 260 Q 2428.8 260.8 2428 258.5 L 2432 248.5 Q 2429.5 247 2433 245.5 L 2434 240.5 L 2434 238.5 L 2436 227.5 L 2435 225.5 L 2437 219.5 L 2437 217.5 L 2439 204.5 L 2438 202.5 L 2440 198.5 L 2440 192.5 L 2443 178.5 L 2443 176.5 L 2444 173.5 L 2444 171.5 L 2445 168.5 L 2445 166.5 L 2448 154.5 L 2448 152.5 L 2451 142.5 Q 2448.5 141 2452 139.5 L 2456 126.5 L 2455.5 125 Q 2458.1 125.8 2457 122.5 L 2457.5 120 L 2459 119.5 L 2458.5 118 L 2461 116.5 L 2463 113.5 Q 2460.8 112.3 2463.5 111 Q 2465 113.5 2466.5 110 L 2475.5 108 L 2484.5 110 L 2486 109.5 Q 2485.2 112.1 2488.5 111 L 2491.5 112 L 2493 111.5 L 2492.5 113 L 2499.5 115 L 2501 114.5 L 2500.5 116 L 2504.5 117 L 2506 116.5 L 2505.5 118 L 2518.5 125 L 2520 124.5 Q 2517.8 125.8 2520.5 127 L 2522.5 126 L 2523.5 129 L 2528.5 132 Q 2529.8 129.8 2531 132.5 L 2530 133.5 L 2533.5 137 L 2536.5 139 L 2538 138.5 L 2537 139.5 L 2540.5 143 L 2543.5 145 L 2545 144.5 L 2544 145.5 L 2548.5 150 L 2550.5 151 L 2552 150.5 L 2551 151.5 L 2556.5 157 L 2558.5 156 Q 2561.3 157.3 2559 158.5 L 2563.5 163 L 2570.5 168 Q 2571.8 165.8 2573 168.5 Q 2570.3 170.2 2574.5 172 L 2581.5 177 L 2583 176.5 Q 2580.8 177.8 2583.5 179 L 2587.5 181 L 2604.5 181 L 2611.5 179 Q 2613.3 181.8 2619.5 180 L 2621.5 178 L 2624.5 179 L 2631.5 179 L 2639.5 177 L 2640.5 178 L 2682.5 178 L 2684.5 178 L 2700.5 179 L 2710 166.5 L 2709.5 165 L 2711 165.5 L 2719 153.5 L 2718.5 152 L 2721 150.5 L 2725 144.5 L 2724.5 143 L 2726 143.5 L 2731 136.5 L 2730.5 135 L 2734 132.5 L 2733.5 131 L 2739 126.5 L 2738.5 125 L 2745 119.5 L 2744.5 118 L 2745.5 119 L 2751 113.5 L 2750.5 112 L 2751.5 113 L 2758 106.5 L 2758.5 105 Q 2759.7 107.3 2761 104.5 L 2760.5 103 L 2761.5 104 L 2764.5 101 L 2774 93.5 L 2774.5 92 Q 2776.3 94.8 2778 90.5 L 2779.5 88 Q 2780.8 90.2 2782 87.5 L 2782.5 86 Q 2784 88.5 2785.5 85 L 2787 84.5 L 2786.5 83 L 2788.5 83 L 2796 78.5 L 2795.5 77 L 2797 77.5 L 2797.5 76 L 2799.5 76 L 2804 73.5 L 2804.5 72 L 2807 73 L 2807.5 71 Z M 2593 281 L 2579 288 Q 2567 298 2560 313 L 2555 328 L 2552 345 L 2552 374 L 2553 379 Q 2557 396 2567 408 Q 2574 416 2586 419 Q 2596 420 2603 418 L 2614 412 Q 2626 402 2632 387 L 2637 373 L 2641 353 L 2641 338 L 2640 337 L 2639 322 Q 2636 305 2627 295 Q 2621 287 2612 283 Q 2605 279 2593 281 Z M 2701 281 L 2689 286 Q 2676 296 2668 312 L 2663 326 L 2660 341 L 2660 350 L 2659 351 Q 2657 387 2673 406 Q 2680 415 2694 419 L 2707 419 Q 2717 416 2724 410 Q 2734 400 2740 386 L 2747 363 L 2747 324 Q 2744 308 2736 297 Q 2730 288 2720 283 Q 2712 280 2701 281 Z M 2428 468 L 2429 472 L 2433 472 L 2433 471 L 2432 471 L 2432 470 L 2428 468 Z " /><path fill="rgb(253,111,34)" stroke="rgb(253,111,34)" stroke-width="1" opacity="1" d="M 64 101 L 280.5 101 L 281 102.5 L 318 220.5 L 314 228.5 L 311 237.5 L 312 238.5 L 309 243.5 L 302 263.5 L 303 264.5 L 301 266.5 L 302 267.5 L 300 269.5 L 301 270.5 L 297 278.5 L 295 284.5 L 296 285.5 L 293 290.5 L 289 302.5 L 294.5 306 L 306 308 L 373 110.5 L 377.5 101 L 578 101 L 578 555 L 421 555 L 421 402.5 L 420 402.5 L 419 404.5 L 419 406.5 L 417 411.5 L 418 412.5 L 415 417.5 L 412 427.5 L 412 429.5 L 409 437.5 Q 411.5 439 408 440.5 L 405 450.5 L 405 452.5 L 402 460.5 Q 404.5 462 401 463.5 L 395 483.5 Q 397.5 485 394 486.5 L 388 506.5 Q 390.5 508 387 509.5 L 385 516.5 Q 387.5 518 384 519.5 L 381 529.5 Q 383.5 531 380 532.5 L 379 536.5 L 380 537.5 L 377 542.5 L 374 552.5 Q 376.3 553.7 373.5 555 L 269.5 555 L 269 551.5 L 266 545.5 L 262 528.5 L 259 522.5 L 255 505.5 L 252 499.5 L 248 482.5 L 245 476.5 L 241 459.5 L 238 453.5 L 234 436.5 L 231 430.5 L 230 423.5 L 224 407.5 L 224 403.5 L 222.5 402 L 222 555 L 64 555 L 64 101 Z " /><path fill="rgb(253,111,34)" stroke="rgb(253,111,34)" stroke-width="1" opacity="1" d="M 734.5 101 L 931.5 101 L 932 103.5 L 940 125.5 L 940 129.5 L 944 138.5 L 944 142.5 L 948 151.5 L 948 155.5 L 952 164.5 L 952 168.5 L 980 259.5 L 982 262.5 L 983 269.5 L 986 275.5 L 987 282.5 L 990 288.5 L 991 295.5 L 994 301.5 L 995 308.5 L 999 317.5 L 999 321.5 L 1003 330.5 L 1003 334.5 L 1007 343.5 L 1007 347.5 L 1011 356.5 L 1011 360.5 L 1014 366.5 L 1015 373.5 L 1039 451.5 L 1041 454.5 L 1042 461.5 L 1045 467.5 L 1046 474.5 L 1049 480.5 L 1050 487.5 L 1053 493.5 L 1054 500.5 L 1057 506.5 L 1058 513.5 L 1062 522.5 L 1062 526.5 L 1066 535.5 L 1066 539.5 L 1070 548.5 L 1071 555 L 862.5 555 L 862 552.5 L 860 549.5 L 859 542.5 L 852 523.5 L 847 503.5 L 843 494.5 L 843 490.5 L 839 481.5 L 838 474.5 L 832.5 462 L 830 466.5 Q 832.5 468 829 469.5 L 826 479.5 Q 828.5 481 825 482.5 L 822 492.5 Q 824.5 494 821 495.5 L 818 505.5 Q 820.5 507 817 508.5 L 815 515.5 L 816 516.5 L 814 518.5 L 815 519.5 L 813 523.5 L 811 528.5 Q 813.5 530 810 531.5 L 809 534.5 L 809 536.5 L 805 547.5 Q 807.5 549 804 550.5 Q 804.8 554.3 802.5 555 L 595.5 555 L 595 551.5 L 717 157.5 L 732 105.5 L 734.5 101 Z M 767 312 Q 767 315 764 314 L 764 317 L 762 317 L 762 320 L 760 320 L 760 323 L 758 323 L 758 326 L 756 326 L 755 329 L 766 334 L 793 343 L 815 347 L 820 349 L 831 350 L 833 350 L 840 352 L 858 353 L 860 353 L 861 354 L 872 354 L 873 355 L 897 355 L 898 356 L 907 356 L 908 355 Q 909 358 915 356 L 916 355 L 916 339 L 915 337 L 899 337 L 898 336 Q 892 335 891 337 L 889 336 L 887 337 L 886 336 L 874 335 L 871 336 L 864 334 L 861 335 L 854 333 L 852 334 L 832 330 L 830 331 L 827 330 L 825 330 L 821 328 L 819 329 L 817 328 L 815 328 L 812 326 L 797 323 L 795 323 L 793 322 L 789 320 L 788 321 L 786 319 L 776 316 L 774 316 L 771 314 L 767 312 Z " /><path fill="rgb(253,111,34)" stroke="rgb(253,111,34)" stroke-width="1" opacity="1" d="M 1088 101 L 1296.5 101 L 1298.5 102 L 1300.5 102 L 1312.5 102 L 1313.5 103 L 1315.5 103 L 1323.5 103 L 1324.5 104 L 1332.5 104 L 1333.5 105 L 1353.5 107 L 1358.5 109 L 1372.5 111 L 1398.5 119 L 1413.5 125 L 1433.5 136 L 1457 154 L 1458.5 157 Q 1460.8 156.3 1460 158.5 L 1475 176.5 L 1486 197.5 L 1486 200.5 L 1490 208.5 L 1497 237.5 L 1497 239.5 L 1498 257.5 L 1499 258.5 L 1499 291.5 L 1497 302.5 L 1497 304.5 Q 1495.1 323.6 1488 337.5 Q 1490.5 339 1487 340.5 L 1486 342.5 Q 1488.5 344 1485 345.5 L 1481 356 Q 1478.3 354.9 1479 357.5 L 1475 363.5 L 1475 366 L 1472 367.5 L 1470 373 L 1467 374.5 L 1459.5 385 L 1450 393.5 L 1512 555 L 1313.5 555 L 1312 553.5 L 1298 513.5 L 1297 507.5 L 1292 496.5 L 1289 484.5 L 1281 464.5 L 1276 446 L 1273.5 445 L 1273 556 L 1088 556 L 1088 101 Z M 1235 250 L 1230 258 Q 1231 261 1229 260 L 1225 265 L 1226 267 Q 1244 278 1268 284 L 1298 291 L 1310 292 L 1323 295 L 1330 295 L 1331 296 L 1350 297 L 1351 298 L 1353 297 L 1354 298 L 1373 298 L 1374 299 L 1376 299 L 1376 281 L 1367 281 L 1366 280 L 1360 281 L 1358 281 L 1351 279 L 1348 280 L 1333 277 L 1326 277 L 1324 277 L 1308 273 L 1306 274 Q 1304 271 1299 272 L 1297 272 L 1290 270 L 1288 270 L 1286 269 L 1284 269 L 1278 266 L 1275 266 L 1273 266 L 1271 264 L 1268 264 L 1249 257 L 1240 252 L 1237 252 Q 1238 249 1235 250 Z " /><path fill="rgb(253,111,34)" stroke="rgb(253,111,34)" stroke-width="1" opacity="1" d="M 1529 101 L 1727 101 L 1727 167.5 L 1725 171.5 L 1724 174.5 Q 1726.5 176 1723 177.5 L 1720 185.5 Q 1722.5 187 1719 188.5 L 1718 191.5 Q 1720.5 193 1717 194.5 L 1714 202.5 Q 1716.5 204 1713 205.5 L 1712 208.5 Q 1714.5 210 1711 211.5 L 1708 219.5 Q 1710.5 221 1707 222.5 L 1702 236.5 Q 1704.5 238 1701 239.5 L 1696 253.5 Q 1698.5 255 1695 256.5 L 1690 270.5 Q 1692.5 272 1689 273.5 L 1688 278 L 1705 282 L 1767 101 L 1970 101.5 L 1968 105.5 L 1964 115.5 Q 1966.5 117 1963 118.5 L 1961 123.5 Q 1963.5 125 1960 126.5 L 1956 136.5 L 1957 137.5 L 1954 142.5 L 1953 144.5 Q 1955.5 146 1952 147.5 L 1948 157.5 Q 1950.5 159 1947 160.5 L 1943 170.5 L 1944 171.5 L 1941 176.5 L 1940 178.5 Q 1942.5 180 1939 181.5 L 1935 191.5 Q 1937.5 193 1934 194.5 L 1930 204.5 Q 1932.5 206 1929 207.5 L 1927 212.5 Q 1929.5 214 1926 215.5 L 1922 225.5 L 1923 226.5 L 1920 231.5 L 1919 233.5 Q 1921.5 235 1918 236.5 L 1917 238.5 Q 1919.5 240 1916 241.5 L 1914 246.5 Q 1916.5 248 1913 249.5 L 1909 259.5 L 1910 260.5 L 1907 265.5 L 1906 267.5 Q 1908.5 269 1905 270.5 L 1901 280.5 Q 1903.5 282 1900 283.5 L 1896 293.5 L 1897 294.5 L 1894 299.5 L 1893 301.5 Q 1895.5 303 1892 304.5 L 1888 314.5 L 1889 315.5 L 1886 320.5 Q 1883.4 323.4 1884 329.5 L 1890 342.5 L 1890 345.5 L 1892 347.5 L 1892 350.5 L 1898 363.5 L 1898 366.5 L 1906 384.5 L 1906 387.5 L 1914 405.5 L 1919 421.5 L 1922 426.5 L 1924 434.5 L 1930 447.5 L 1948 497.5 L 1951 502.5 L 1951 505.5 Q 1955.1 510.4 1956 518.5 L 1959 523.5 L 1959 526.5 L 1961 528.5 L 1961 531.5 L 1967 544.5 L 1967 547.5 L 1969 549.5 L 1970 555 L 1767.5 555 L 1767 553.5 L 1727.5 440 L 1727 555 L 1529 555 L 1529 101 Z " /><path fill="rgb(253,111,34)" stroke="rgb(253,111,34)" stroke-width="1" opacity="1" d="M 1980 101 L 2397 101 L 2397 249 L 2287 249 L 2287 556 L 2089 556 L 2089 249 L 1981.5 249 L 1980 247.5 L 1980 101 Z " /><path fill="rgb(253,111,34)" stroke="rgb(253,111,34)" stroke-width="1" opacity="1" d="M 2932 101 L 3141.5 101 L 3142.5 102 L 3156.5 102 L 3157.5 103 L 3159.5 103 L 3167.5 103 L 3168.5 104 L 3170.5 104 L 3185.5 105 L 3207.5 110 L 3212.5 110 L 3248.5 121 L 3271.5 132 L 3282.5 139 L 3306 159.5 L 3318 174.5 L 3325 186.5 L 3335 210.5 L 3341 235.5 L 3341 237.5 L 3343 262.5 L 3344 263.5 L 3343 266.5 L 3344 277.5 L 3343 278.5 L 3343 286.5 L 3343 288.5 L 3342 297.5 L 3342 299.5 Q 3340.6 319.1 3334 333.5 Q 3336.5 335 3333 336.5 L 3332 338.5 Q 3334.5 340 3331 341.5 L 3329 345.5 L 3329 347.5 L 3325 353.5 L 3325.5 355 Q 3323.3 354.3 3324 356.5 L 3320 362.5 L 3320 365 L 3318 365 Q 3319.5 368.7 3316.5 368 L 3315.5 371 L 3312 373.5 Q 3314.3 374.8 3311.5 376 L 3308 378.5 L 3295 392.5 L 3295 396.5 L 3298 401.5 L 3305 422.5 L 3307 424.5 L 3307 427.5 L 3310 432.5 L 3310 435.5 L 3315 445.5 L 3322 466.5 L 3324 468.5 L 3324 471.5 L 3327 476.5 L 3327 479.5 L 3332 489.5 L 3339 510.5 L 3341 512.5 L 3341 515.5 Q 3350.3 533.9 3356 555 L 3157.5 555 L 3157 553.5 L 3146 524.5 L 3139 500.5 L 3135 492.5 L 3129 471.5 L 3124 460.5 L 3120 445 L 3118 445.5 L 3118 556 L 2932 556 L 2932 101 Z M 3081 250 L 3078 253 Q 3079 256 3077 255 L 3073 260 Q 3074 263 3072 262 Q 3069 263 3071 265 L 3069 266 L 3091 277 L 3116 285 L 3143 290 L 3148 292 L 3174 295 L 3176 295 Q 3177 298 3183 296 L 3185 296 L 3186 297 L 3195 297 L 3197 297 L 3198 298 L 3217 298 L 3220 299 L 3221 298 L 3221 283 L 3220 281 L 3211 281 L 3210 280 L 3206 281 L 3195 279 L 3192 280 L 3185 278 L 3183 279 L 3177 277 L 3175 278 L 3170 276 L 3168 277 L 3164 276 L 3162 276 L 3158 274 L 3156 275 L 3153 274 L 3151 274 L 3147 272 L 3145 273 L 3138 270 L 3136 271 Q 3132 268 3126 268 L 3124 268 L 3122 266 L 3113 264 L 3111 264 L 3107 262 L 3105 262 L 3103 260 L 3087 254 Q 3084 255 3085 253 L 3084 253 L 3083 251 L 3081 250 Z " /><path fill="rgb(253,111,34)" stroke="rgb(253,111,34)" stroke-width="1" opacity="1" d="M 3354 101 L 3556.5 101 L 3557 103.5 Q 3561.5 109.5 3563 118.5 L 3565 120.5 L 3565 123.5 L 3571 135.5 L 3587 177.5 L 3589 179.5 L 3590 185.5 L 3588 189.5 L 3587 191.5 Q 3589.5 193 3586 194.5 L 3582 204.5 Q 3584.5 206 3581 207.5 L 3577 217.5 Q 3579.5 219 3576 220.5 L 3575 222.5 L 3576 223.5 L 3573 228.5 L 3570 235.5 Q 3572.5 237 3569 238.5 L 3565 248.5 Q 3567.5 250 3564 251.5 L 3563 253.5 L 3564 254.5 L 3561 259.5 L 3559 264.5 L 3575.5 269 L 3578 265.5 L 3637 109.5 L 3641.5 101 L 3828.5 101 L 3829 102.5 L 3827 105.5 Q 3829.5 107 3826 108.5 L 3824 115.5 L 3820 121.5 Q 3822.5 123 3819 124.5 L 3817 128.5 L 3817.5 130 L 3816 130.5 Q 3818.5 132 3815 133.5 L 3812 139.5 Q 3814.5 141 3811 142.5 L 3809 149.5 L 3805 155.5 Q 3807.5 157 3804 158.5 L 3802 162.5 L 3802.5 164 L 3801 164.5 Q 3803.5 166 3800 167.5 L 3797 173.5 Q 3799.5 175 3796 176.5 L 3794 183.5 L 3787 196.5 L 3787.5 198 L 3786 198.5 Q 3788.5 200 3785 201.5 L 3782 207.5 Q 3784.5 209 3781 210.5 L 3779 217.5 L 3772 230.5 L 3772.5 232 L 3771 232.5 Q 3773.5 234 3770 235.5 L 3767 241.5 Q 3769.5 243 3766 244.5 L 3764 251.5 L 3757 264.5 L 3757.5 266 L 3756 266.5 Q 3758.5 268 3755 269.5 L 3752 275.5 Q 3754.5 277 3751 278.5 L 3749 285.5 L 3742 298.5 L 3742.5 300 L 3741 300.5 Q 3743.5 302 3740 303.5 L 3737 309.5 Q 3739.5 311 3736 312.5 L 3734 319.5 L 3726 334.5 Q 3728.5 336 3725 337.5 L 3722 343.5 Q 3724.5 345 3721 346.5 L 3719 353.5 L 3711 368.5 Q 3713.5 370 3710 371.5 L 3708 375.5 L 3708.5 377 L 3707 377.5 Q 3709.5 379 3706 380.5 L 3704 387.5 L 3697 400.5 L 3697 402.5 L 3697 555 L 3499 555 L 3499 404.5 L 3483 372.5 L 3480 363.5 L 3471 347.5 L 3468 338.5 L 3459 322.5 L 3456 313.5 L 3447 297.5 L 3443 286.5 L 3435 272.5 L 3430 259.5 L 3423 247.5 L 3420 238.5 L 3411 222.5 L 3408 213.5 L 3399 197.5 L 3396 188.5 L 3387 172.5 L 3384 163.5 L 3375 147.5 L 3372 138.5 L 3363 122.5 L 3354 101 Z " /><path fill="rgb(253,111,34)" stroke="rgb(253,111,34)" stroke-width="1" opacity="1" d="M 2597.5 293 Q 2609.9 293.1 2615 300.5 Q 2622.2 308.3 2626 319.5 L 2621.5 320 L 2619.5 319 L 2609.5 322 L 2605 326.5 Q 2594.2 343.2 2595 371.5 L 2596 372.5 L 2597 384.5 L 2604.5 394 L 2610 396.5 Q 2605.3 402.8 2597.5 406 L 2588.5 407 Q 2580.5 404.5 2576 398.5 Q 2568.2 389.3 2565 375.5 Q 2566.3 370.8 2564 369.5 L 2564 343.5 L 2569 323.5 L 2574 312.5 L 2588.5 297 L 2597.5 293 Z " /><path fill="rgb(253,111,34)" stroke="rgb(253,111,34)" stroke-width="1" opacity="1" d="M 2705.5 293 Q 2712.2 292.3 2715.5 295 L 2726 304.5 L 2733 317.5 L 2733 320 L 2727.5 319 L 2717.5 322 L 2712 327.5 L 2709 332.5 L 2704 348.5 Q 2705.3 353.3 2703 354.5 L 2703 375.5 L 2705 385.5 L 2710.5 393 L 2717 395 Q 2717.8 398.8 2714.5 400 Q 2708.8 406.8 2696.5 407 Q 2686.8 404.3 2682 396.5 Q 2674.7 386.8 2672 372.5 L 2672 340.5 L 2677 321.5 L 2681 313.5 L 2694.5 298 L 2705.5 293 Z " /><path fill="rgb(1,0,0)" stroke="rgb(1,0,0)" stroke-width="1" opacity="1" d="M 2596.5 281 Q 2617.3 282.2 2626 295.5 L 2634 309.5 L 2638 323.5 Q 2636.5 329 2639 330.5 L 2639 357.5 L 2635 374.5 L 2630 387.5 Q 2624 402 2612.5 411 L 2601.5 417 L 2586.5 418 Q 2572.4 414.1 2565 403.5 L 2559 394.5 L 2553 375.5 Q 2554.3 370.8 2552 369.5 L 2552 350.5 L 2553 349.5 L 2553 341.5 L 2555 330.5 L 2560 314.5 Q 2567.5 297.5 2581.5 287 L 2596.5 281 Z M 2597 292 L 2588 296 Q 2577 304 2570 317 L 2563 341 L 2563 373 L 2564 378 Q 2567 391 2575 400 Q 2580 405 2589 408 Q 2605 407 2612 396 L 2603 391 L 2598 385 L 2596 376 L 2596 356 Q 2598 354 2597 350 L 2601 336 L 2607 326 Q 2611 321 2618 320 L 2626 321 L 2625 315 L 2618 303 L 2607 293 L 2597 292 Z " /><path fill="rgb(1,0,0)" stroke="rgb(1,0,0)" stroke-width="1" opacity="1" d="M 2704.5 281 L 2716.5 283 Q 2726 286.5 2732 293.5 Q 2741.7 304.3 2745 321.5 L 2746 326.5 L 2746 360.5 L 2738 386.5 Q 2732.6 400.1 2722.5 409 Q 2715.7 415.2 2705.5 418 L 2693.5 418 Q 2682.7 414.8 2676 407.5 Q 2656.4 388.1 2660 345.5 L 2663 328.5 L 2668 313.5 Q 2675.5 298.5 2687.5 288 Q 2694.4 282.9 2704.5 281 Z M 2705 292 L 2694 297 Q 2682 306 2676 321 L 2670 345 L 2670 367 L 2671 368 L 2672 380 L 2681 398 Q 2686 405 2697 408 Q 2708 408 2714 402 L 2719 396 L 2712 392 L 2705 384 L 2704 371 L 2703 370 L 2705 348 L 2709 335 L 2713 328 Q 2717 321 2726 320 L 2734 321 L 2733 316 L 2724 301 L 2714 293 L 2705 292 Z " /><path fill="rgb(0,0,0)" stroke="rgb(0,0,0)" stroke-width="1" opacity="0" d="M 0 0 L 3864.5 0 L 3865 0.5 L 3865 661 L 0.5 661 L 0 660.5 L 0 0 Z M 2808 69 Q 2779 84 2757 104 L 2732 130 L 2703 173 L 2699 177 L 2694 176 L 2678 176 L 2677 175 L 2628 176 L 2627 177 L 2616 177 L 2615 178 L 2602 178 L 2601 179 L 2590 179 L 2588 178 L 2533 131 L 2519 121 Q 2502 111 2480 106 Q 2470 105 2465 108 Q 2458 113 2455 121 L 2445 154 L 2438 190 L 2434 227 L 2430 248 L 2396 316 L 2388 341 L 2384 364 L 2384 395 L 2390 421 L 2402 447 L 2414 465 L 2422 474 L 2439 490 L 2453 499 L 2470 514 L 2521 545 L 2536 552 L 2553 557 L 2585 563 L 2604 564 L 2605 565 L 2656 565 L 2657 564 L 2671 564 L 2672 563 L 2681 563 L 2682 562 L 2704 560 L 2732 554 L 2764 543 L 2794 530 L 2831 510 L 2850 496 Q 2872 475 2888 448 L 2896 432 L 2906 404 L 2913 373 L 2913 336 L 2912 335 L 2912 326 L 2911 325 L 2909 308 L 2902 285 Q 2893 263 2881 245 Q 2867 224 2848 209 L 2847 206 Q 2848 201 2846 200 L 2846 168 L 2845 167 L 2845 158 L 2842 143 L 2842 137 L 2841 136 L 2839 113 L 2836 99 L 2827 76 Q 2823 66 2808 69 Z M 63 99 L 63 557 L 224 557 L 225 412 L 268 556 L 270 557 L 376 557 L 376 554 L 380 544 L 419 413 L 420 413 L 420 557 L 580 557 L 580 99 L 376 99 L 305 307 L 292 303 L 319 223 L 319 217 L 317 210 L 282 101 L 282 99 L 63 99 Z M 733 99 L 593 555 L 594 557 L 805 557 L 832 468 L 834 466 L 861 555 L 862 557 L 1073 557 L 1073 553 L 1065 530 L 1062 517 L 934 101 L 933 99 L 733 99 Z M 1087 99 L 1087 558 L 1274 558 L 1275 557 L 1276 451 L 1311 556 L 1313 557 L 1514 557 L 1512 548 L 1453 397 L 1453 395 L 1476 368 L 1489 344 L 1497 319 L 1500 302 L 1500 293 L 1501 292 L 1501 259 L 1500 258 L 1500 248 L 1494 216 Q 1485 184 1466 162 Q 1444 136 1411 122 L 1379 111 L 1351 105 L 1330 103 L 1329 102 L 1320 102 L 1319 101 L 1285 100 L 1284 99 L 1087 99 Z M 1528 99 L 1528 557 L 1729 557 L 1730 449 L 1766 555 L 1767 557 L 1972 557 L 1972 553 L 1886 329 L 1972 104 Q 1972 99 1972 99 L 1766 99 L 1707 274 L 1704 280 L 1691 277 L 1729 170 L 1729 99 L 1528 99 Z M 1979 99 L 1979 250 L 2088 250 L 2088 557 L 2090 558 L 2288 558 L 2289 557 L 2289 250 L 2398 250 L 2399 249 L 2399 101 L 2398 99 L 1979 99 Z M 2931 99 L 2931 558 L 3119 558 L 3120 557 L 3121 453 L 3156 556 L 3157 557 L 3359 557 L 3297 396 L 3321 367 L 3335 340 L 3343 311 L 3344 298 L 3345 297 L 3345 278 L 3346 277 L 3345 275 L 3344 244 L 3336 208 Q 3327 182 3312 164 Q 3295 142 3270 129 L 3237 115 L 3201 106 L 3183 104 L 3182 103 L 3174 103 L 3173 102 L 3164 102 L 3163 101 L 3129 100 L 3128 99 L 2931 99 Z M 3352 99 L 3352 103 L 3362 124 L 3498 406 L 3498 557 L 3698 557 L 3699 556 L 3699 402 L 3832 102 L 3832 99 L 3640 99 L 3576 267 L 3572 267 L 3562 264 L 3592 188 L 3592 183 L 3558 101 L 3558 99 L 3352 99 Z " /><path fill="rgb(0,0,0)" stroke="rgb(0,0,0)" stroke-width="1" opacity="0" d="M 1236 253 L 1263.5 265 L 1297.5 274 L 1312.5 276 L 1318.5 278 L 1339.5 280 L 1340.5 281 L 1375 283 L 1375 297 L 1358.5 297 L 1357.5 296 L 1345.5 296 L 1344.5 295 L 1335.5 295 L 1334.5 294 L 1312.5 292 L 1277.5 285 L 1248.5 276 L 1228 265.5 L 1236 253 Z " /><path fill="rgb(0,0,0)" stroke="rgb(0,0,0)" stroke-width="1" opacity="0" d="M 3081.5 253 L 3099.5 262 L 3137.5 273 L 3169.5 279 L 3184.5 280 L 3185.5 281 L 3220 283 L 3220 297 L 3202.5 297 L 3201.5 296 L 3189.5 296 L 3188.5 295 L 3163.5 293 L 3130.5 287 L 3095.5 277 L 3072 265.5 L 3081.5 253 Z " /><path fill="rgb(0,0,0)" stroke="rgb(0,0,0)" stroke-width="1" opacity="0" d="M 767.5 315 L 795.5 325 L 838.5 334 L 862.5 336 L 863.5 337 L 876.5 337 L 877.5 338 L 899.5 338 L 900.5 339 L 915 339 L 915 354 L 882.5 354 L 881.5 353 L 865.5 353 L 864.5 352 L 844.5 351 L 843.5 350 L 836.5 350 L 807.5 345 L 784.5 339 L 758 328.5 L 767.5 315 Z " /></svg>