<svg width="34" height="34" viewBox="0 0 34 34" fill="none" xmlns="http://www.w3.org/2000/svg">
<path d="M16.7615 31.2066C14.8292 31.2066 13.0133 30.8397 11.3138 30.1059C9.61427 29.372 8.13593 28.377 6.87876 27.1208C5.6216 25.8645 4.62657 24.3862 3.89369 22.6858C3.16081 20.9853 2.7939 19.1694 2.79297 17.2381C2.79204 15.3067 3.15895 13.4908 3.89369 11.7903C4.62843 10.0899 5.62346 8.61156 6.87876 7.35532C8.13407 6.09909 9.6124 5.10406 11.3138 4.37025C13.0151 3.63644 14.831 3.26953 16.7615 3.26953C18.6919 3.26953 20.5079 3.63644 22.2092 4.37025C23.9106 5.10406 25.3889 6.09909 26.6442 7.35532C27.8995 8.61156 28.895 10.0899 29.6307 11.7903C30.3664 13.4908 30.7328 15.3067 30.73 17.2381C30.7272 19.1694 30.3603 20.9853 29.6293 22.6858C28.8983 24.3862 27.9033 25.8645 26.6442 27.1208C25.3852 28.377 23.9069 29.3725 22.2092 30.1073C20.5116 30.842 18.6957 31.2084 16.7615 31.2066ZM16.7615 28.4129C19.8811 28.4129 22.5235 27.3303 24.6886 25.1652C26.8537 23.0001 27.9363 20.3577 27.9363 17.2381C27.9363 14.1184 26.8537 11.476 24.6886 9.31092C22.5235 7.1458 19.8811 6.06324 16.7615 6.06324C13.6419 6.06324 10.9995 7.1458 8.83436 9.31092C6.66924 11.476 5.58667 14.1184 5.58667 17.2381C5.58667 20.3577 6.66924 23.0001 8.83436 25.1652C10.9995 27.3303 13.6419 28.4129 16.7615 28.4129Z" fill="#D4D4D4"/>
</svg>
