<svg width="34" height="34" viewBox="0 0 34 34" fill="none" xmlns="http://www.w3.org/2000/svg">
<path fill-rule="evenodd" clip-rule="evenodd" d="M16.7631 29.8094C18.414 29.8094 20.0488 29.4842 21.574 28.8524C23.0993 28.2206 24.4852 27.2946 25.6526 26.1272C26.82 24.9598 27.746 23.5739 28.3778 22.0487C29.0096 20.5234 29.3347 18.8886 29.3347 17.2377C29.3347 15.5868 29.0096 13.952 28.3778 12.4267C27.746 10.9015 26.82 9.51556 25.6526 8.34817C24.4852 7.18078 23.0993 6.25476 21.574 5.62298C20.0488 4.99119 18.414 4.66602 16.7631 4.66602C13.4289 4.66602 10.2312 5.99053 7.87356 8.34817C5.51592 10.7058 4.19141 13.9035 4.19141 17.2377C4.19141 20.5719 5.51592 23.7696 7.87356 26.1272C10.2312 28.4848 13.4289 29.8094 16.7631 29.8094ZM16.439 22.3222L23.4233 13.9411L21.2777 12.1531L15.2712 19.3595L12.1632 16.2501L10.1881 18.2253L14.3786 22.4158L15.4598 23.497L16.439 22.3222Z" fill="#FD6F22"/>
</svg>
